<svg width="88" height="144" viewBox="0 0 88 144" fill="none" xmlns="http://www.w3.org/2000/svg">
<g clip-path="url(#clip0_353_446)">
<path d="M31.055 115.741C32.4495 119.288 36.4862 121.781 40.2018 122.111C53.2477 123.275 58.2385 117.29 57.1743 104.576C56.6147 97.8577 51.6972 93.8154 45.1284 93.4121C38.2477 92.9905 32.0459 94.9062 30.1835 102.111H16.2569V18.4606C16.2569 15.5275 21.2936 11.5494 24.2385 11.6502H79.3853C83.2569 11.971 86.2935 14.3267 87.5688 17.9657C88.4403 51.697 87.6789 85.5934 87.9541 119.38C87.633 122.845 85.2752 125.008 82.4312 126.621C69.7431 133.853 36.1651 133.587 23.0183 127.391C19.4587 125.714 16.5688 123.239 16.2385 119.086C16.1651 118.115 16.0183 116.428 16.6881 115.741H31.055ZM29.9816 49.5522C30.4128 49.983 31.4495 50.1755 32.0642 50.2305C44.6972 51.3762 59.0458 49.3322 71.8532 50.2305C72.9725 50.2763 74.2385 49.543 74.3211 48.3422L74.1559 27.5993C73.578 26.756 72.5504 26.4352 71.5596 26.426C58.844 27.3151 44.6055 25.2894 32.0642 26.426C30.1009 26.6002 29.4862 27.251 29.3027 29.185C28.9082 33.5389 28.8348 43.4933 29.3027 47.7648C29.3578 48.2506 29.6514 49.2405 29.9725 49.5613L29.9816 49.5522Z" fill="black"/>
<path d="M4.3578 106.465H34.2477C33.6973 102.276 36.156 98.4902 40.4954 98.0594C45.0642 97.6011 51.7248 97.9861 52.5138 103.733C52.9908 107.207 53.0367 113.229 50.367 115.75C48.0367 117.95 43.0092 117.84 39.9083 117.482C37.0183 117.152 34.6697 114.183 34.4037 111.378L34.0642 111.139L2.17431 111.112C1.2844 111.084 0.477064 110.516 0.0642202 109.737L0 1.92497C0.357798 -1.11819 4.3578 0.045909 4.3578 1.35667V106.465ZM40.5505 102.752C39.6789 102.945 39.0459 103.724 38.9083 104.595C38.7248 105.796 38.7431 110.874 39.2202 111.79C39.5505 112.423 40.3761 113 41.0826 113.119C42.156 113.284 46.3027 113.275 47.1284 112.817C49.1101 111.699 49.2569 103.22 46.578 102.707C45.7156 102.542 41.3945 102.569 40.5505 102.762V102.752Z" fill="#24BC04"/>
<path d="M30.4771 7.29625C30.6422 5.73801 31.3027 1.11828 32.8073 0.485816L70.9082 0.40332C72.5229 0.714969 73.2202 5.75634 73.7156 7.29625H30.4771Z" fill="black"/>
<path d="M30.1929 134.586C35.0553 135.668 40.0277 136.145 44.9635 136.649C44.7525 138.555 45.8901 143.01 43.5598 143.734C42.514 144.064 33.4498 144.055 32.1011 143.844C31.1562 143.698 30.1929 142.524 30.1929 141.69V134.586Z" fill="black"/>
<path d="M73.7248 134.586V142.268C73.7248 142.873 72.4679 143.743 71.8166 143.844C70.4863 144.055 61.6789 144.055 60.6422 143.734C58.3211 143.01 59.4312 138.555 59.2478 136.658L73.7156 134.586H73.7248Z" fill="black"/>
</g>
<defs>
<clipPath id="clip0_353_446">
<rect width="88" height="144" fill="white"/>
</clipPath>
</defs>
</svg>
