<svg width="122" height="136" viewBox="0 0 122 136" fill="none" xmlns="http://www.w3.org/2000/svg">
<g clip-path="url(#clip0_353_1111)">
<path d="M88.3717 41.8765H104.692C108.222 41.8765 114.308 45.8098 116.586 48.4713C126.452 59.9696 119.998 77.1319 105.495 80.1343C76.5695 80.9996 47.5118 80.2523 18.5463 80.5145C4.4522 79.4394 -4.30725 65.0436 2.18659 52.2079C4.51806 47.5929 11.4334 41.8765 16.7945 41.8765H50.4492C45.2462 27.4151 57.6411 12.6915 72.8681 15.3268C85.3026 17.477 92.0335 30.1553 88.3717 41.8765ZM17.1633 47.8026C1.34358 49.8086 2.753 75.0734 19.7187 74.6539C37.962 74.2081 36.8556 45.2985 17.1633 47.8026Z" fill="black"/>
<path d="M36.7766 135.803C35.3277 135.502 34.0237 131.096 33.4704 129.733C27.925 116.097 23.0645 102.187 17.5059 88.5644C16.7551 87.0174 17.44 85.4703 19.126 85.1687H41.4923L62.212 135.803H36.7766Z" fill="black"/>
<path d="M93.9566 135.803H68.3763L48.0913 85.1819H72.0514L93.9566 135.803Z" fill="black"/>
<path d="M78.6768 85.1819H102.637C102.755 85.1819 104.046 86.5585 104.112 86.9387L121.987 133.247C122.171 134.715 121.117 135.698 119.708 135.83C113.873 136.406 107.102 135.358 101.148 135.83L100.279 135.528L78.6768 85.195V85.1819Z" fill="black"/>
<path d="M36.8424 31.9908C38.0937 31.7679 42.7962 31.7548 43.9817 32.0564C47.0639 32.8561 47.0903 37.3925 43.4679 37.9956C42.0454 38.2316 37.198 38.2447 35.973 37.6941C33.2596 36.501 33.6547 32.5677 36.8424 31.9908Z" fill="black"/>
<path d="M68.5871 0.0918365C70.3917 -0.314603 71.9855 0.668719 72.2095 2.51736C72.3675 3.8809 72.4071 9.15151 72.1436 10.3577C71.6167 12.7308 67.6388 13.0848 66.5982 10.4364C66.203 9.41373 66.124 3.43513 66.3874 2.28137C66.5718 1.4816 67.7968 0.262279 68.5871 0.0918365Z" fill="black"/>
<path d="M95.3528 31.9907C98.1716 31.5187 106.628 31.4662 104.178 36.396C103.085 38.5855 97.7501 38.3233 95.5767 38.0742C91.5724 37.6153 91.3353 32.6724 95.3528 32.0038V31.9907Z" fill="black"/>
<path d="M45.6675 9.45302C47.9858 8.92858 51.7266 12.5865 52.9385 14.3827C54.8484 17.2147 52.5828 20.4269 49.3557 19.1158C48.9473 18.9454 44.4688 14.5663 44.1527 14.055C43.1516 12.4685 43.718 9.88568 45.6675 9.45302Z" fill="black"/>
<path d="M91.2302 9.45291C93.6802 8.90225 95.9195 11.2622 94.7735 13.5698C94.5232 14.068 89.8471 18.7617 89.3729 19.0108C86.7385 20.3612 83.9855 17.6997 85.3818 15.0382C85.8165 14.1991 90.4662 9.62336 91.2302 9.45291Z" fill="black"/>
<path d="M17.1631 47.8027C36.8554 45.2985 37.975 74.2081 19.7185 74.6539C2.75285 75.0735 1.33027 49.8086 17.1631 47.8027Z" fill="#46AC35"/>
</g>
<defs>
<clipPath id="clip0_353_1111">
<rect width="122" height="136" fill="white"/>
</clipPath>
</defs>
</svg>
