<svg width="135" height="136" viewBox="0 0 135 136" fill="none" xmlns="http://www.w3.org/2000/svg">
<g clip-path="url(#clip0_353_463)">
<path d="M68.5457 0L133.371 36.8157C136.521 39.0317 134.629 44.1752 130.918 44.0748C128.782 44.0201 125.225 40.9377 123.116 40.1169V128.039H131.95C132.113 128.039 133.271 128.695 133.498 128.878C136.349 131.13 134.874 135.517 131.434 136.018L2.89664 135.891C1.36697 135.353 0.814842 134.395 0.00927734 133.091V130.966C0.38038 129.981 1.97341 128.048 3.04146 128.048H11.8755V40.1078C7.93821 42.0503 2.77897 47.2667 0.00927734 40.9012V39.0408C0.570457 37.7276 1.28551 36.843 2.56174 36.1682L66.4367 0H68.5457ZM71.4421 39.8434C72.7545 40.6641 73.6325 42.2965 74.8906 43.1446C78.9275 45.8896 83.4441 41.3298 80.2852 37.1804C78.665 35.0465 72.5192 28.909 70.3921 27.2219C68.1926 25.4709 66.5815 25.6168 64.4545 27.3496C62.2731 29.137 56.3536 34.9918 54.6972 37.1804C51.5202 41.3754 56.082 45.8714 60.0917 43.1446C61.3408 42.2965 62.2188 40.6641 63.5403 39.8434V64.9404C63.5403 65.1137 64.4907 66.6457 64.7622 66.892C66.3009 68.3146 68.7267 68.3876 70.2654 66.9376C70.4736 66.7461 71.4421 65.0589 71.4421 64.9404V39.8434ZM43.7632 53.924C45.3381 54.9271 46.7501 57.59 48.66 57.891C52.8779 58.5658 54.9868 54.3799 52.3348 50.9966C50.606 48.7896 44.9037 43.0443 42.7133 41.3025C41.247 40.1352 39.9888 39.6336 38.079 40.3541C36.8842 40.8009 28.4665 49.2547 27.2899 50.7321C26.8464 51.2884 26.0408 52.3828 25.905 53.0485C25.1719 56.5686 28.7109 59.1221 31.8336 57.4259C33.2818 56.6325 34.2775 54.4803 35.8705 53.9148V79.2855C35.8705 79.5955 36.848 80.8631 37.201 81.1276C38.8122 82.3587 40.9754 82.3131 42.4689 80.8905C42.8219 80.5531 43.7723 78.8386 43.7723 78.4921V53.924H43.7632ZM99.1209 53.924C100.714 54.4894 101.701 56.6416 103.158 57.435C106.271 59.1312 109.82 56.5778 109.086 53.0576C108.951 52.3919 108.145 51.2884 107.702 50.7412C105.882 48.4796 100.578 43.0899 98.3425 41.3116C96.1883 39.5971 94.3961 39.6245 92.2691 41.3116C90.0787 43.0534 84.3764 48.7988 82.6476 51.0057C79.9955 54.3891 82.1045 58.5658 86.3224 57.9001C88.2322 57.5991 89.6442 54.9362 91.2191 53.9331V78.5012C91.2191 78.8568 92.1695 80.5713 92.5225 80.8996C94.025 82.3223 96.1792 82.3679 97.7904 81.1367C98.1434 80.8631 99.1209 79.5955 99.1209 79.2946V53.924Z" fill="black"/>
<path d="M99.1207 53.9239V79.2945C99.1207 79.6045 98.1431 80.8722 97.7901 81.1366C96.179 82.3678 94.0157 82.3222 92.5223 80.8995C92.1693 80.5621 91.2189 78.8476 91.2189 78.5011V53.933C89.644 54.9361 88.232 57.599 86.3221 57.9C82.1042 58.5748 79.9953 54.389 82.6473 51.0056C84.3761 48.7987 90.0784 43.0533 92.2688 41.3115C94.3959 39.6244 96.188 39.597 98.3422 41.3115C100.578 43.0898 105.882 48.4795 107.701 50.7411C108.145 51.2974 108.95 52.3918 109.086 53.0575C109.819 56.5777 106.28 59.1311 103.158 57.4349C101.709 56.6415 100.714 54.4893 99.1207 53.9239Z" fill="#24BC04"/>
<path d="M43.7629 53.9239V78.492C43.7629 78.8477 42.8126 80.5621 42.4596 80.8904C40.957 82.3131 38.8028 82.3587 37.1917 81.1275C36.8387 80.854 35.8612 79.5863 35.8612 79.2854V53.9148C34.2681 54.4802 33.2815 56.6324 31.8243 57.4258C28.7106 59.1221 25.1625 56.5686 25.8957 53.0484C26.0315 52.3827 26.837 51.2792 27.2805 50.7321C28.4663 49.2638 36.8749 40.81 38.0697 40.354C39.9795 39.6336 41.2376 40.1351 42.7039 41.3024C44.8944 43.0443 50.5967 48.7896 52.3255 50.9965C54.9775 54.3799 52.8685 58.5566 48.6506 57.8909C46.7408 57.59 45.3288 54.9271 43.7539 53.9239H43.7629Z" fill="#24BC04"/>
<path d="M71.442 39.8433V64.9403C71.442 65.0589 70.4644 66.746 70.2653 66.9375C68.7175 68.3875 66.3008 68.3146 64.7621 66.8919C64.4906 66.6366 63.5402 65.1136 63.5402 64.9403V39.8433C62.2278 40.6641 61.3498 42.2965 60.0917 43.1446C56.0819 45.8713 51.5201 41.3754 54.6971 37.1804C56.3535 34.9917 62.264 29.1369 64.4544 27.3495C66.5814 25.6077 68.1926 25.4709 70.392 27.2218C72.5191 28.909 78.6559 35.0464 80.2851 37.1804C83.444 41.3298 78.9274 45.8896 74.8905 43.1446C73.6414 42.2965 72.7635 40.6641 71.442 39.8433Z" fill="#24BC04"/>
</g>
<defs>
<clipPath id="clip0_353_463">
<rect width="135" height="136" fill="white"/>
</clipPath>
</defs>
</svg>
