<svg width="138" height="138" viewBox="0 0 138 138" fill="none" xmlns="http://www.w3.org/2000/svg">
<g clip-path="url(#clip0_353_471)">
<path d="M7.60778 135.707C5.12325 135.327 3.10117 133.523 2.46644 131.104C1.85891 128.793 2.66593 126.419 4.57919 124.924C4.59733 124.915 6.27484 123.646 7.45363 123.646H13.6196V46.4863C11.8968 47.5556 10.1376 48.5252 8.4964 48.5705H8.33318C5.72171 48.5705 3.40947 46.8306 2.59338 44.2299C1.78637 41.6745 2.65686 39.0648 4.78775 37.5696L4.87842 37.5062L67.4087 2.26538H70.6096L132.133 36.8537C133.693 37.6693 134.763 38.8473 135.543 40.6506L135.733 41.0765V43.7859L135.543 44.2209C133.992 47.7368 131.635 48.4798 129.939 48.4798C128.008 48.4798 126.121 47.5193 124.408 46.4953V123.646H130.574C133.158 123.646 135.18 126.8 135.588 127.887L135.733 128.268V131.376L135.352 131.947L135.071 132.373C134.355 133.487 133.475 134.874 131.354 135.517L131.036 135.617L7.78006 135.744L7.60778 135.716V135.707Z" fill="black"/>
<path d="M70.0199 4.53083L131.027 38.8292C132.251 39.4726 132.931 40.3063 133.466 41.5477V43.3147C132.514 45.4623 131.29 46.2235 129.939 46.2235C127.472 46.2235 124.58 43.7225 122.141 42.5626V125.912H130.573C131.598 125.912 133.121 127.751 133.466 128.685V130.696C132.668 131.911 132.215 132.889 130.7 133.351L7.95209 133.478C4.69682 132.98 3.22786 128.875 5.97535 126.709C6.19297 126.537 7.29016 125.921 7.45337 125.921H15.8863V42.5536C13.9095 43.36 10.4729 46.2507 8.43267 46.3051C8.3964 46.3051 8.3692 46.3051 8.33293 46.3051C4.85097 46.3051 3.10999 41.5024 6.09323 39.4273L68.0069 4.53083H70.0199ZM71.2078 0H66.819L65.7853 0.589008L3.8626 35.4855L3.67218 35.5942L3.49083 35.7211C0.525716 37.7962 -0.680277 41.4027 0.425972 44.9186C1.54129 48.4618 4.71495 50.845 8.32386 50.845C8.3964 50.845 8.46894 50.845 8.54149 50.845C9.50265 50.8178 10.4275 50.5912 11.3434 50.2469V121.39H7.4443C5.46757 121.39 3.39108 122.976 3.16439 123.148C0.534783 125.214 -0.580533 128.485 0.262755 131.693C1.13325 134.982 3.87167 137.447 7.25388 137.964L7.59845 138.018H7.94302L130.691 137.891H131.362L131.997 137.701C134.917 136.822 136.15 134.892 136.966 133.614C137.048 133.487 137.138 133.351 137.229 133.215L137.982 132.083V127.878L137.692 127.108C137.021 125.323 134.291 121.399 130.555 121.399H126.656V50.1382C127.681 50.5097 128.769 50.7453 129.921 50.7453C131.861 50.7453 135.443 50.0204 137.601 45.1361L137.991 44.2662V40.6053L137.619 39.7444C136.64 37.4881 135.234 35.9295 133.185 34.8421L72.2415 0.579946L71.2078 0Z" fill="#24BC04"/>
</g>
<defs>
<clipPath id="clip0_353_471">
<rect width="138" height="138" fill="white"/>
</clipPath>
</defs>
</svg>
