<svg width="143" height="137" viewBox="0 0 143 137" fill="none" xmlns="http://www.w3.org/2000/svg">
<g clip-path="url(#clip0_353_458)">
<path d="M91.1743 97.2188V136.509H51.7524V97.2188H91.1743Z" fill="#24BC04" stroke="#3FAB3C"/>
<path d="M0 66.8485C0.64249 65.3298 1.50526 64.3692 2.64339 63.2256C18.0356 47.7737 34.3641 32.9438 50.1418 17.8578C54.9146 13.2927 59.6323 8.1603 64.5152 3.78728C66.7456 1.79289 68.673 -0.174053 71.9314 0.00891828C76.2269 0.25593 81.6422 7.09907 84.7628 10.0541C103.744 28.0493 122.523 46.2916 141.476 64.3326C143.128 66.1623 143.872 68.916 141.421 70.4164C140.972 70.6909 139.384 71.2947 138.952 71.2947H130.995V127.394C130.995 131.364 125.662 137 121.642 137H86.8647V99.6919H55.3001V137H21.092C17.9163 137 12.0146 131.748 12.0146 128.51V71.2947H4.04769C2.57914 71.2947 0.523171 69.9407 0 68.5135V66.8393V66.8485Z" fill="black"/>
<path d="M105.598 51.0125H89.1779C87.0083 51.0125 85.2495 52.7655 85.2495 54.928V73.6826C85.2495 75.8452 87.0083 77.5982 89.1779 77.5982H105.598C107.768 77.5982 109.526 75.8452 109.526 73.6826V54.928C109.526 52.7655 107.768 51.0125 105.598 51.0125Z" fill="#24BC04"/>
</g>
<defs>
<clipPath id="clip0_353_458">
<rect width="143" height="137" fill="white"/>
</clipPath>
</defs>
</svg>
