<svg width="143" height="120" viewBox="0 0 143 120" fill="none" xmlns="http://www.w3.org/2000/svg">
<g clip-path="url(#clip0_353_433)">
<path d="M143 102.152V116.902C143 117.914 141.248 119.754 140.198 120H2.80213C1.94415 119.872 0 117.877 0 117.185V102.152H143Z" fill="black"/>
<path d="M143 94.2799H0V2.81528C0 2.12285 1.94415 0.127553 2.80213 0H140.189C141.047 0.127553 142.991 2.12285 142.991 2.81528V94.2799H143ZM86.6927 47.067C86.6927 27.515 70.8109 11.662 51.2233 11.662C31.6358 11.662 15.7631 27.515 15.7631 47.067C15.7631 66.6191 31.6449 82.4721 51.2325 82.4721C70.82 82.4721 86.7018 66.6191 86.7018 47.067H86.6927ZM99.8545 11.7349C95.5737 13.2108 95.9023 18.6774 100.375 19.5156C107.613 18.8687 116.658 20.4722 123.686 19.5156C128.223 18.8961 128.378 12.7462 123.978 11.6893L99.8545 11.7349ZM99.8545 27.4694C95.5737 28.9454 95.9023 34.412 100.375 35.2502C107.613 34.6033 116.658 36.2068 123.686 35.2502C128.223 34.6306 128.378 28.4808 123.978 27.4239L99.8545 27.4694ZM99.8545 43.204C95.5737 44.68 95.9023 50.1465 100.375 50.9847C107.613 50.3379 116.658 51.9414 123.686 50.9847C128.223 50.3652 128.378 44.2153 123.978 43.1584L99.8545 43.204ZM99.8545 58.9386C95.5737 60.4145 95.9023 65.8811 100.375 66.7193C107.613 66.0724 116.658 67.6759 123.686 66.7193C128.223 66.0998 128.378 59.9499 123.978 58.893L99.8545 58.9386ZM99.8545 74.6731C95.5737 76.1491 95.9023 81.6157 100.375 82.4539C107.613 81.807 116.658 83.4105 123.686 82.4539C128.223 81.8343 128.378 75.6845 123.978 74.6276L99.8545 74.6731Z" fill="black"/>
<path d="M45.9201 57.7725C46.8054 58.2189 49.0782 58.4102 49.708 58.8567C50 59.0662 51.2688 61.1253 51.4878 61.5808C53.5598 65.9814 52.8752 70.9651 49.6441 74.5821C43.3553 74.1995 37.322 71.6575 32.667 67.4483C32.667 67.1385 35.6517 66.4643 36.2267 66.2365C40.2245 64.6239 43.8664 61.5626 45.9201 57.7725Z" fill="#24BC04"/>
<path d="M56.5445 36.38C55.6592 35.9335 53.3864 35.7422 52.7566 35.2958C52.4646 35.0862 51.1958 33.0271 50.9768 32.5716C48.9049 28.171 49.5894 23.1873 52.8205 19.5703C59.1094 19.953 65.1426 22.4949 69.7976 26.7042C69.7976 27.0139 66.8129 27.6881 66.2379 27.9159C62.2857 29.5103 58.5252 32.608 56.5445 36.3709V36.38Z" fill="#24BC04"/>
<path d="M24.7628 41.1723C24.7628 41.1723 24.8723 41.7554 25.1644 42.0287C29.1987 45.6731 33.799 47.9326 39.3759 47.9417C39.7957 50.3652 40.6354 51.1032 39.4489 53.4447C37.3861 57.5355 32.3203 60.2414 27.7475 59.6857C27.3641 59.6401 26.6704 59.5399 26.4331 59.2484C25.8855 58.5833 24.8267 55.1758 24.562 54.1645C23.631 50.5565 23.1016 45.1629 24.1878 41.5914C24.2882 41.2725 24.2699 40.7532 24.7537 41.1814L24.7628 41.1723Z" fill="#24BC04"/>
<path d="M75.9316 34.7855C76.3788 35.159 77.6749 39.1587 77.894 39.9878C79.0166 44.3429 79.1079 48.5612 78.2499 52.9709L74.0057 49.4814C70.7563 47.3586 66.9866 46.2288 63.0801 46.2015C62.6602 43.7871 61.8205 43.04 63.0071 40.6985C65.0425 36.6715 69.9439 34.0111 74.4529 34.4302C74.8089 34.4666 75.7034 34.5942 75.9316 34.7764V34.7855Z" fill="#24BC04"/>
<path d="M43.0726 20.946C40.9459 26.3853 41.9134 32.2527 44.4691 37.3457C42.9448 38.3935 42.3789 39.8239 40.4074 40.0517C36.2727 40.5254 31.6542 38.1475 29.4545 34.6853C27.5833 31.7425 28.423 31.2323 30.5497 28.8088C33.6713 25.2464 38.445 22.0211 43.0818 20.946H43.0726Z" fill="#24BC04"/>
<path d="M59.3926 73.2063C61.5193 67.7671 60.5518 61.8997 57.9961 56.8067C59.5204 55.7589 60.0863 54.3285 62.0578 54.1007C66.1926 53.627 70.8111 56.0049 73.0108 59.4671C74.8819 62.4099 74.0422 62.9201 71.9155 65.3436C68.7939 68.906 64.0202 72.1313 59.3835 73.2063H59.3926Z" fill="#24BC04"/>
<path d="M51.2235 51.003C53.3961 51.003 55.1574 49.2449 55.1574 47.0762C55.1574 44.9075 53.3961 43.1494 51.2235 43.1494C49.0508 43.1494 47.2896 44.9075 47.2896 47.0762C47.2896 49.2449 49.0508 51.003 51.2235 51.003Z" fill="#24BC04"/>
</g>
<defs>
<clipPath id="clip0_353_433">
<rect width="143" height="120" fill="white"/>
</clipPath>
</defs>
</svg>
