<svg width="140" height="114" viewBox="0 0 140 114" fill="none" xmlns="http://www.w3.org/2000/svg">
<g clip-path="url(#clip0_353_479)">
<path d="M110.293 4.46413C114.771 4.46413 117.58 9.10207 117.58 9.10207L135.111 54.2374C137.948 69.7612 125.844 71.4993 125.844 71.4993H14.3293C4.67913 71.4993 4.46023 57.3934 4.46023 57.3934C4.46023 57.3934 20.4678 13.6668 22.9305 9.10207C25.3932 4.53731 30.2183 4.46413 30.2183 4.46413H110.302M110.293 0H30.1453C27.3907 0.045739 21.9454 1.56428 19.0175 6.97978C16.4727 11.7 1.93368 51.3558 0.282755 55.8565L0 56.6341V57.4665C0.109453 63.8609 3.22887 75.9634 14.3293 75.9634H126.163L126.473 75.9177C127.121 75.8262 132.94 74.8474 136.808 69.4685C139.772 65.3337 140.675 59.9364 139.489 53.4415L139.416 53.0207L139.261 52.6273L121.73 7.49206L121.594 7.13529L121.393 6.80597C120.973 6.11074 117.097 0.00914781 110.302 0.00914781L110.293 0Z" fill="#24BC04"/>
<path d="M75.3862 71.4992V43.2874H130.815C132.174 46.7178 134.208 50.7062 135.111 54.2373C136.552 59.8174 135.777 65.0317 131.153 68.8463C130.149 69.6788 127.039 71.49 125.853 71.49H75.3862V71.4992Z" fill="black"/>
<path d="M64.7964 43.2966V71.5085H14.3293C11.7206 71.5085 7.40634 67.7304 6.08377 65.5075C1.75124 58.2259 7.16919 50.2856 9.69574 43.2966H64.7964Z" fill="black"/>
<path d="M85.9756 82.1199V103.361H105.996C107.127 103.361 109.161 104.898 109.809 105.849C112.044 109.133 109.882 113.634 106.015 114L33.5475 113.963C30.0723 113.021 28.2481 108.987 30.3824 105.849C31.0209 104.907 33.064 103.361 34.1951 103.361H54.2159V82.1199H85.9847H85.9756Z" fill="black"/>
<path d="M126.346 32.676H75.3862V4.46411H110.293C112.409 4.46411 116.249 7.45544 117.581 9.10205C120.144 12.2855 122.925 21.8815 124.367 26.1902C125.078 28.3216 125.908 30.4622 126.346 32.6668V32.676Z" fill="black"/>
<path d="M64.7966 4.46411V32.676H13.8369C13.8552 31.7154 14.2747 30.8281 14.5848 29.9408C16.2266 25.1382 20.2035 12.5508 22.9398 9.1112C24.2076 7.51948 28.2027 4.47326 30.2276 4.47326H64.8057L64.7966 4.46411Z" fill="black"/>
</g>
<defs>
<clipPath id="clip0_353_479">
<rect width="140" height="114" fill="white"/>
</clipPath>
</defs>
</svg>
