<svg width="135" height="137" viewBox="0 0 135 137" fill="none" xmlns="http://www.w3.org/2000/svg">
<g clip-path="url(#clip0_353_475)">
<path d="M133.488 129.408C133.262 129.225 132.113 128.565 131.941 128.565H123.107V40.2785C125.216 41.1027 128.773 44.1983 130.909 44.2532C134.629 44.354 136.521 39.1886 133.362 36.9632L68.5454 0H66.4365L2.55246 36.3312C1.26718 37.009 0.56118 37.8973 0 39.2161V41.0844C2.7697 47.4678 7.92893 42.2292 11.8662 40.2877V128.583H3.03218C1.96413 128.583 0.371103 130.534 0 131.514V133.648C0.805565 134.958 1.35769 135.919 2.88736 136.46L131.425 136.588C134.864 136.084 136.34 131.679 133.488 129.417V129.408Z" fill="black"/>
<path d="M131.036 128.858H123.107V113.032H11.8662V128.858H3.95541C1.77405 128.858 0 130.653 0 132.86V132.998C0 135.214 1.77405 137 3.95541 137H131.036C133.217 137 134.991 135.205 134.991 132.998V132.86C134.991 130.653 133.217 128.858 131.036 128.858Z" fill="#24BC04"/>
</g>
<defs>
<clipPath id="clip0_353_475">
<rect width="135" height="137" fill="white"/>
</clipPath>
</defs>
</svg>
