<svg width="95" height="137" viewBox="0 0 95 137" fill="none" xmlns="http://www.w3.org/2000/svg">
<g clip-path="url(#clip0_353_1103)">
<path d="M95 137H75.926L69.8052 118.308C69.2074 117.363 68.3533 116.476 67.1576 116.562L26.9029 116.705L25.1378 118.508L19.1025 137H0V33.0334C0 30.5716 3.98562 27.5946 6.43392 27.9095H89.107C91.3845 27.8522 95 30.7434 95 33.0334V137ZM15.3162 39.8748C12.1846 40.4187 9.96404 42.8518 9.62242 46.0292V95.1786C9.9071 98.5278 12.1561 101.018 15.5154 101.39H79.513C82.8723 101.018 85.1214 98.5278 85.4061 95.1786C85.1498 78.2898 85.8616 61.2578 85.036 44.4262C84.1534 41.7068 81.7621 39.9893 78.9437 39.7889L15.2877 39.8748H15.3162Z" fill="black"/>
<path d="M64.5387 23.7875H30.0631L29.6646 23.3868V2.11826C29.6646 1.43126 30.5186 -0.0858771 31.4296 0.0286235H62.7736C63.2007 -0.200378 64.5387 1.17363 64.5387 1.28813V23.7875Z" fill="black"/>
<path d="M15.3163 39.8749L78.9723 39.7891C81.7907 39.9894 84.182 41.7356 85.0646 44.4263C85.8902 61.2579 85.1785 78.2613 85.4347 95.1787C85.1215 98.5279 82.901 101.018 79.5417 101.39H15.5156C12.1563 101.018 9.90725 98.5279 9.62256 95.1787V46.0293C9.99265 42.852 12.1847 40.4188 15.3448 39.8749H15.3163ZM63.4284 75.9713C61.8626 77.9464 57.4215 83.5856 54.7739 80.6658C53.4074 79.1487 54.5461 77.746 54.6315 76.0858C54.9447 70.8187 53.1512 64.2063 49.4218 60.3706C49.1656 60.1129 49.0802 59.8553 48.5962 59.9412C48.2546 62.8609 43.8704 73.0515 41.5644 74.2538C40.0271 75.0553 38.4044 74.311 38.0058 72.6507C37.9489 72.3645 37.5219 67.5268 36.5255 68.5001C33.9633 75.8854 25.7928 83.8718 32.6822 91.572C33.0238 91.9441 35.3867 94.2055 35.6999 93.9192C36.4116 90.3697 38.3475 87.1064 40.6534 84.4157C41.536 83.3852 44.8953 80.0074 46.034 79.8643C47.9414 79.6067 51.2438 83.2421 52.411 84.7306C54.8308 87.8221 56.8521 92.1731 57.1368 96.152C57.7916 96.8676 61.6633 92.946 62.2042 92.259C65.9336 87.4786 65.8482 81.3814 63.4568 75.9999L63.4284 75.9713ZM40.3972 96.3524C42.817 97.3829 50.589 100.102 52.7241 98.4706C53.7206 97.7264 51.927 92.8887 51.3861 91.801C50.9021 90.7991 47.5998 85.8183 46.7742 85.6466C43.3864 88.0797 40.9666 92.259 40.3972 96.3524Z" fill="black"/>
<path d="M63.4282 75.9711C65.8195 81.3526 65.9049 87.4498 62.1755 92.2302C61.6631 92.9172 57.7914 96.8388 57.1081 96.1232C56.8234 92.1443 54.8306 87.8219 52.3823 84.7017C51.2151 83.2132 47.9127 79.5778 46.0053 79.8355C44.8666 79.9786 41.5073 83.3564 40.6248 84.3869C38.3188 87.1062 36.3829 90.3695 35.6712 93.8904C35.358 94.1767 32.9667 91.9153 32.6535 91.5431C25.7926 83.8716 33.9631 75.8566 36.4968 68.4713C37.4932 67.5266 37.9202 72.3357 37.9772 72.6219C38.3757 74.2822 39.9984 75.0264 41.5357 74.2249C43.8702 73.0227 48.2259 62.8321 48.5675 59.9124C49.023 59.7979 49.1084 60.0555 49.3931 60.3417C53.151 64.1775 54.9445 70.8185 54.6029 76.0569C54.489 77.7172 53.3503 79.1198 54.7452 80.637C57.3928 83.5567 61.8339 77.9176 63.3997 75.9424L63.4282 75.9711Z" fill="#44AC34"/>
<path d="M40.397 96.3523C40.9663 92.2589 43.3862 88.0796 46.774 85.6465C47.628 85.7896 50.9019 90.7704 51.3859 91.8009C51.9268 92.8886 53.6919 97.7263 52.7239 98.4706C50.5888 100.102 42.8168 97.3828 40.397 96.3523Z" fill="#44AC34"/>
</g>
<defs>
<clipPath id="clip0_353_1103">
<rect width="95" height="137" fill="white"/>
</clipPath>
</defs>
</svg>
