<svg width="127" height="57" viewBox="0 0 127 57" fill="none" xmlns="http://www.w3.org/2000/svg">
<g clip-path="url(#clip0_181_21)">
<path d="M57.2462 28.4953C57.2381 44.2369 44.5103 57.0175 28.8577 57C13.181 56.9812 0.45314 44.1779 0.499884 28.4698C0.546629 12.6451 13.2397 -0.0120662 29.0486 8.63232e-06C44.5397 0.0120835 57.2528 12.8584 57.2448 28.4953H57.2462ZM30.0076 6.88804C30.0076 6.28966 29.9795 5.75569 30.0156 5.22842C30.0503 4.73469 29.8273 4.59516 29.3892 4.63407C27.641 4.79372 25.8607 4.78433 24.1498 5.13048C11.5636 7.67559 3.31924 19.8068 5.46146 32.531C7.60369 45.2606 19.6397 54.0417 32.2967 52.1084C42.9851 50.4756 51.104 42.0983 52.4155 31.3088C52.5704 30.0369 52.5691 28.7449 52.6425 27.4327H35.6877V29.6545H50.2666C50.0342 38.7697 42.7741 48.7931 31.0159 49.9778C19.1495 51.1719 8.54659 42.4485 7.47547 30.7359C6.93057 24.7803 8.43841 19.3989 12.2541 14.793C16.819 9.28289 22.7756 6.74046 30.0089 6.88938L30.0076 6.88804ZM27.7572 40.9847C28.0724 40.9847 28.3128 40.9847 28.5545 40.9847C30.5805 40.9847 32.6052 40.9874 34.6313 40.9847C35.7838 40.9821 35.6222 41.0786 35.6289 39.9839C35.6369 38.7348 35.6302 38.7348 34.4136 38.7348C32.9725 38.7348 31.5328 38.7348 29.9969 38.7348V16.0368H27.7585V40.9847H27.7572ZM19.8053 22.804C21.7004 22.8027 23.2096 21.3014 23.2136 19.4164C23.2176 17.5367 21.6938 15.9844 19.836 15.9724C17.9475 15.9603 16.3823 17.5287 16.3943 19.4177C16.4063 21.3068 17.9155 22.8054 19.8053 22.804Z" fill="white"/>
<path d="M126.5 25.9394V44.2932H118.612V41.4422C118.46 41.5133 118.389 41.524 118.357 41.5643C116.534 43.892 114.046 44.8795 111.201 45.0633C104.883 45.4712 99.9771 42.2217 97.8683 36.2017C96.2857 31.6857 96.0934 27.0664 97.4075 22.4753C99.1438 16.4124 103.309 13.0046 109.462 12.0828C113.375 11.4965 117.188 11.8856 120.756 13.7867C124.38 15.7174 126.205 18.7898 126.488 22.8496C126.492 22.9167 126.496 22.9838 126.491 23.0508C126.488 23.0938 126.468 23.1354 126.437 23.244C126.27 23.2575 126.081 23.287 125.891 23.287C123.064 23.2897 120.237 23.287 117.41 23.287C117.1 23.287 116.81 23.3447 116.718 22.8831C116.346 21.0129 115.245 19.7906 113.371 19.3989C111.397 18.9856 109.708 19.5706 108.404 21.1256C107.434 22.2834 106.946 23.6787 106.686 25.1492C106.206 27.8472 106.197 30.5453 106.995 33.183C107.276 34.1074 107.711 35.0291 108.264 35.8193C109.88 38.1229 113.167 38.7119 115.464 37.169C117.052 36.1024 117.561 34.4213 117.966 32.5497H111.981C111.981 31.6468 111.981 30.8257 111.981 30.0046C111.981 28.8199 111.984 27.6339 111.976 26.4492C111.973 26.0991 112.005 25.8576 112.466 25.8589C117.074 25.8737 121.681 25.8723 126.289 25.8764C126.33 25.8764 126.373 25.9005 126.503 25.9408L126.5 25.9394Z" fill="white"/>
<path d="M80.6958 36.3816H94.4734C94.4988 36.5842 94.5295 36.7116 94.5295 36.8404C94.5322 39.144 94.5242 41.4476 94.5389 43.7499C94.5415 44.1604 94.4561 44.3523 93.9926 44.351C86.603 44.3389 79.2134 44.3416 71.8238 44.3389C71.7156 44.3389 71.6074 44.3147 71.4485 44.2946V12.7256H80.6972V36.3816H80.6958Z" fill="white"/>
</g>
<defs>
<clipPath id="clip0_181_21">
<rect width="126" height="57" fill="white" transform="translate(0.5)"/>
</clipPath>
</defs>
</svg>
