<?xml version="1.0" encoding="UTF-8"?>
<svg id="Calque_1" xmlns="http://www.w3.org/2000/svg" version="1.1" viewBox="0 0 902.3 201.89">
  <!-- Generator: Adobe Illustrator 29.1.0, SVG Export Plug-In . SVG Version: 2.1.0 Build 142)  -->
  <defs>
    <style>
      .st0 {
        stroke: #000;
      }

      .st0, .st1 {
        stroke-miterlimit: 10;
        stroke-width: 2px;
      }

      .st2 {
        fill: #f1c728;
      }

      .st1 {
        fill: #ffed00;
        stroke: #ffed00;
      }
    </style>
  </defs>
  <g>
    <g>
      <path d="M256.97,116.79c-3.96-2.4-7.01-5.79-9.16-10.18-2.16-4.39-3.23-9.49-3.23-15.31s1.13-11.19,3.39-15.63c2.26-4.44,5.48-7.85,9.66-10.22s9.09-3.55,14.74-3.55c7,0,12.87,1.78,17.61,5.33,4.74,3.55,7.92,8.56,9.53,15.03h-12.76c-1.13-3.01-2.94-5.34-5.42-6.99-2.48-1.64-5.41-2.46-8.8-2.46-4.79,0-8.55,1.61-11.27,4.85-2.72,3.23-4.08,7.73-4.08,13.49s1.41,10.26,4.24,13.49c2.83,3.23,6.77,4.85,11.83,4.85,4.1,0,7.51-1.04,10.26-3.11s4.58-4.94,5.5-8.6h-16.4v-9.05h27.55v30.7h-7.92l-1.05-9.13c-2.15,3.28-4.96,5.79-8.44,7.51-3.47,1.73-7.44,2.59-11.91,2.59-5.28,0-9.89-1.2-13.86-3.6Z"/>
      <path d="M311.79,62.87h39.75v10.1h-27.31v12.68h25.69v9.86h-25.69v13.73h28.12v10.18h-40.56v-56.55ZM326.73,57.94l5.01-12.44h11.23l-6.78,12.44h-9.45Z"/>
      <path d="M362.6,62.87h15.75l15.75,29.49,5.25,11.15-.16-11.47v-29.16h11.87v56.55h-15.67l-15.75-29.49-5.33-11.15.16,11.47v29.16h-11.87v-56.55Z"/>
      <path d="M424,62.87h12.52v56.55h-12.52v-56.55Z"/>
      <path d="M449.53,62.87h39.75v10.1h-27.31v12.68h25.69v9.86h-25.69v13.73h28.12v10.18h-40.56v-56.55Z"/>
      <path class="st2" d="M504.82,115.62c-4.39-3.18-6.91-8.08-7.55-14.7h12.44c.54,3.39,1.85,5.84,3.92,7.35,2.08,1.51,5.05,2.26,8.93,2.26s6.61-.62,8.53-1.86c1.91-1.24,2.87-2.91,2.87-5.01,0-1.67-.62-3.04-1.86-4.12-1.24-1.07-2.79-1.91-4.64-2.5-1.86-.59-4.43-1.26-7.72-2.02-4.47-1.02-8.12-2.06-10.95-3.11-2.83-1.05-5.24-2.69-7.23-4.93-1.99-2.24-2.98-5.21-2.98-8.93,0-5.06,1.91-9.02,5.73-11.88,3.83-2.85,9.43-4.28,16.8-4.28s12.82,1.52,16.8,4.56c3.98,3.04,6.32,7.53,7.03,13.45h-12.04c-.49-2.69-1.64-4.74-3.47-6.14-1.83-1.4-4.47-2.1-7.92-2.1s-5.81.57-7.59,1.7c-1.78,1.13-2.66,2.67-2.66,4.61,0,1.56.59,2.83,1.78,3.8,1.18.97,2.67,1.72,4.44,2.26,1.78.54,4.28,1.16,7.51,1.86,4.69,1.02,8.49,2.07,11.43,3.15,2.93,1.08,5.45,2.76,7.55,5.05,2.1,2.29,3.15,5.4,3.15,9.33,0,5.44-2.12,9.63-6.34,12.56s-10.22,4.4-17.97,4.4-13.58-1.59-17.97-4.77Z"/>
      <path d="M568.8,116.79c-4.28-2.4-7.59-5.8-9.93-10.22-2.35-4.41-3.52-9.56-3.52-15.43s1.17-11.01,3.52-15.43c2.34-4.41,5.65-7.82,9.93-10.22s9.28-3.6,14.99-3.6,10.78,1.2,15.06,3.6c4.29,2.4,7.59,5.8,9.94,10.22,2.34,4.42,3.51,9.56,3.51,15.43s-1.17,11.02-3.51,15.43c-2.35,4.42-5.65,7.82-9.94,10.22-4.28,2.4-9.3,3.6-15.06,3.6s-10.71-1.2-14.99-3.6ZM595.1,103.95c2.75-3.1,4.12-7.37,4.12-12.81s-1.37-9.72-4.12-12.84c-2.75-3.12-6.52-4.69-11.31-4.69s-8.55,1.56-11.27,4.69c-2.72,3.12-4.08,7.41-4.08,12.84s1.37,9.71,4.12,12.81c2.74,3.1,6.49,4.64,11.23,4.64s8.56-1.55,11.31-4.64Z"/>
      <path d="M622.49,62.87h12.52v45.32h25.61v11.23h-38.13v-56.55Z"/>
      <path d="M685.26,62.87h15.83l20.36,56.55h-13.33l-3.64-10.42h-22.62l-3.64,10.42h-13.33l20.36-56.55ZM701.25,99.31l-5.25-15.76-2.83-10.02-2.83,10.02-5.33,15.76h16.24Z"/>
      <path d="M729.76,62.87h12.52v56.55h-12.52v-56.55Z"/>
      <path d="M755.29,62.87h28.76c5.27,0,9.5,1.48,12.68,4.44,3.18,2.96,4.77,6.92,4.77,11.88,0,3.93-1.05,7.15-3.15,9.65-2.1,2.5-5.1,4.14-8.97,4.89,2.1.38,3.74,1.12,4.92,2.22s2.13,2.71,2.83,4.81l1.94,6.22c.32.97.74,1.66,1.26,2.06.51.4,1.25.6,2.22.6h1.45v9.78h-4.85c-3.23,0-5.6-.55-7.11-1.66-1.51-1.1-2.72-3.16-3.64-6.18l-2.18-7.19c-.64-2.15-1.57-3.66-2.79-4.52-1.21-.86-2.97-1.3-5.29-1.3h-10.34v20.84h-12.52v-56.55ZM780.5,88.72c2.8,0,4.95-.67,6.46-2.02,1.51-1.35,2.26-3.26,2.26-5.74s-.76-4.39-2.26-5.74c-1.51-1.34-3.66-2.02-6.46-2.02h-12.77v15.51h12.77Z"/>
      <path d="M813.38,62.87h39.75v10.1h-27.31v12.68h25.69v9.86h-25.69v13.73h28.12v10.18h-40.56v-56.55Z"/>
    </g>
    <g>
      <path d="M742.73,131.82h12.7v3.63h-8.55v4.52h8.01v3.5h-7.99v7.18h-4.17v-18.83Z"/>
      <path d="M758.68,131.82h9.57c1.76,0,3.16.49,4.22,1.48,1.06.99,1.59,2.3,1.59,3.96,0,1.31-.35,2.38-1.05,3.21s-1.69,1.38-2.99,1.63c.7.13,1.25.37,1.64.74.39.37.71.9.94,1.6l.65,2.07c.11.32.25.55.42.69s.42.2.74.2h.48v3.25h-1.61c-1.08,0-1.86-.18-2.37-.55-.5-.37-.91-1.05-1.21-2.06l-.73-2.39c-.22-.72-.53-1.22-.93-1.51-.4-.29-.99-.43-1.76-.43h-3.44v6.94h-4.17v-18.83ZM767.07,140.43c.93,0,1.65-.23,2.15-.67.5-.45.75-1.08.75-1.91s-.25-1.46-.75-1.91c-.5-.45-1.22-.67-2.15-.67h-4.25v5.17h4.25Z"/>
      <path d="M783.72,131.82h5.27l6.78,18.83h-4.44l-1.21-3.47h-7.53l-1.21,3.47h-4.44l6.78-18.83ZM789.05,143.95l-1.75-5.24-.94-3.34-.94,3.34-1.78,5.24h5.41Z"/>
      <path d="M798.54,131.82h5.24l5.25,9.82,1.75,3.71-.05-3.82v-9.71h3.95v18.83h-5.22l-5.24-9.82-1.78-3.71.05,3.82v9.71h-3.95v-18.83Z"/>
      <path d="M822.41,149.77c-1.39-.8-2.46-1.93-3.21-3.4-.75-1.47-1.13-3.18-1.13-5.14s.38-3.67,1.13-5.14c.75-1.47,1.82-2.6,3.21-3.4,1.39-.8,3.01-1.2,4.85-1.2,2.38,0,4.37.65,5.94,1.95,1.58,1.3,2.57,3.08,2.99,5.34h-4.22c-.34-1.08-.91-1.91-1.71-2.5-.8-.59-1.76-.89-2.89-.89-1.52,0-2.73.52-3.62,1.57-.89,1.05-1.33,2.47-1.33,4.26s.44,3.21,1.33,4.25c.89,1.04,2.09,1.56,3.62,1.56,1.17,0,2.16-.31,2.99-.94.82-.63,1.39-1.51,1.69-2.64h4.2c-.38,2.33-1.36,4.17-2.96,5.5-1.6,1.34-3.6,2-6.03,2-1.85,0-3.46-.4-4.85-1.2Z"/>
      <path d="M839.48,131.82h13.23v3.36h-9.09v4.22h8.55v3.28h-8.55v4.57h9.36v3.39h-13.5v-18.83Z"/>
    </g>
  </g>
  <g>
    <path class="st1" d="M172.86,169.36c33.45-.57,44.72-23.24,44.41-41.83-.44-23.81-24.57-31.68-46.23-37.79-16.94-4.85-35.21-10.83-36.72-34.14-1.83-27.78,20.79-44.79,42.77-45.16,10.52-.19,17.51.13,36.72,8.13v-2.71c-18.83-8-26.2-8.31-36.79-8.13-22.87.38-47.24,18.77-45.42,47.94,1.57,25.13,21.67,31.94,38.55,36.79,21.67,6.11,44.03,13.16,44.41,35.15.31,17.7-9.64,38.55-41.76,39.12-9.2.19-24.44.44-42.64-13.61v3.15c17.39,14.05,33.51,13.35,42.71,13.16v-.06Z"/>
    <rect class="st0" x="129.9" y="12.01" width="1.26" height="175.11"/>
    <rect class="st0" x="43.29" y="187.12" width="173.22" height="1.26"/>
    <rect class="st0" x="92.49" y="80.88" width="161.89" height="1.26" transform="translate(12.41 185.39) rotate(-58)"/>
    <rect class="st0" x="87.06" y="-.04" width="1.26" height="162.52" transform="translate(-29.72 58.81) rotate(-32)"/>
    <rect class="st0" x="215.82" y="12.64" width="1.26" height="176.37"/>
    <rect class="st0" x="43.29" y="11.06" width="1.26" height="176.37"/>
    <rect class="st0" x="43.29" y="11.32" width="88.19" height="1.26"/>
    <rect class="st0" x="43.29" y="97.8" width="88.19" height="1.26"/>
  </g>
</svg>