<svg width="60" height="60" viewBox="0 0 60 60" fill="none" xmlns="http://www.w3.org/2000/svg">
<g clip-path="url(#clip0_353_777)">
<path d="M52.7844 21.9842C54.8626 21.7389 56.3077 20.1491 57.6609 18.7394C58.7234 20.9131 59.3816 23.5173 59.7057 25.9346C63.1689 51.6722 34.2272 69.4807 12.79 54.5516C-8.19459 39.9394 -2.23218 7.27693 22.4578 0.942613C28.5605 -0.622198 35.4802 -0.280209 41.2137 2.31724C40.1128 3.45499 38.9501 4.31079 38.3704 5.84391C38.2751 6.09414 37.9644 7 37.9644 7.18684V13.5562L37.6754 13.7247C25.3312 7.90252 11.2045 17.4282 11.9563 31.0377C12.4241 39.5024 19.2201 46.8076 27.6517 47.8319C41.8018 49.5519 52.2715 35.1382 46.2389 22.2744L46.4077 21.9858C48.4241 21.8123 50.8181 22.2194 52.7861 21.9858L52.7844 21.9842Z" fill="black"/>
<path d="M34.5902 16.7408C34.6453 16.956 34.4999 16.9894 34.403 17.1145C32.0124 20.2091 27.8726 23.0768 25.3333 26.1647C20.7792 31.6999 28.1633 39.1219 33.7164 34.661C36.8438 32.1487 39.7139 27.9631 42.843 25.5424C42.9683 25.4457 43.0017 25.3005 43.2172 25.3573C46.5517 35.335 38.4092 45.2727 27.9177 43.8197C22.3095 43.044 17.5065 38.5931 16.2903 33.0779C13.9113 22.3027 24.1939 13.2341 34.5902 16.7408Z" fill="black"/>
<path d="M51.9711 7.99936H58.4113C58.7872 7.99936 59.5674 8.68334 59.7495 9.03534C60.2356 9.97789 59.965 10.6819 59.3519 11.4359C57.6044 13.588 54.9365 15.5398 53.0904 17.6702C52.8181 17.8487 52.4823 17.9521 52.1582 17.9888C49.8244 18.2507 47.0946 17.7402 44.719 18.0539L31.1503 31.6016C29.2725 32.9146 27.0206 30.6658 28.3353 28.7907L41.9024 15.2412C42.2164 12.869 41.7052 10.1431 41.9675 7.81252C42.0043 7.48888 42.1078 7.15523 42.2866 6.88164L48.9273 0.275396C49.8344 -0.230081 50.9855 -0.0315601 51.5986 0.817575C51.6871 0.939357 51.9728 1.4782 51.9728 1.56828V7.99936H51.9711Z" fill="black"/>
</g>
<defs>
<clipPath id="clip0_353_777">
<rect width="60" height="60" fill="white"/>
</clipPath>
</defs>
</svg>
