<svg width="17" height="26" viewBox="0 0 17 26" fill="none" xmlns="http://www.w3.org/2000/svg">
<path d="M9.27154 9.95843C9.82265 9.5765 10.0072 8.85108 9.62528 8.22562C9.32024 7.72578 8.90754 7.29257 8.51279 6.79272C8.12572 7.26694 7.74122 7.67707 7.43106 8.13591C7.05938 8.68702 7.1286 9.34836 7.5336 9.779C7.98475 10.2558 8.72555 10.3327 9.26897 9.95587L9.27154 9.95843Z" fill="#1E1E1E"/>
<path d="M5.89314 19.2686H11.1198V17.9895H5.89314V19.2686Z" fill="#1E1E1E"/>
<path d="M17 2.64025C17 2.01223 16.818 1.45855 16.3797 0.999718C16.0362 0.643415 15.603 0.458856 15.1314 0.348633H1.88408C0.52552 0.640852 -0.00508989 1.66362 3.67621e-05 2.96066C0.0307967 9.10495 0.0128581 15.2467 0.0128581 21.391C0.0128581 21.4909 0.0128528 21.5884 0.0154161 21.6883C0.061556 22.7137 0.738278 23.5339 1.72516 23.7492C1.91484 23.7903 2.11222 23.7979 2.32241 23.8236C2.32241 23.9159 2.32241 23.9979 2.32241 24.0799C2.32241 24.3362 2.31985 24.59 2.32241 24.8463C2.3301 25.2975 2.66077 25.641 3.08885 25.6512C3.51949 25.6615 3.88091 25.3308 3.89885 24.8874C3.91423 24.5362 3.90142 24.1824 3.90142 23.8159H13.1038C13.1038 24.1414 13.1038 24.4516 13.1038 24.7618C13.1063 25.2872 13.4293 25.6461 13.8933 25.6487C14.3598 25.6487 14.6828 25.2924 14.6853 24.7694C14.6853 24.4516 14.6853 24.1363 14.6853 23.821C14.9083 23.7954 15.1006 23.7903 15.2826 23.7492C16.3233 23.5185 16.9923 22.6573 16.9949 21.5396C16.9975 18.8712 16.9949 16.2028 16.9949 13.5344C16.9949 9.90215 16.9949 6.26992 16.9949 2.64025H17ZM6.3981 6.85692C6.89026 6.26992 7.38754 5.68804 7.88996 5.11129C8.23344 4.7191 8.76149 4.70116 9.09985 5.08822C9.65865 5.72649 10.2251 6.35963 10.7429 7.02866C11.8631 8.47694 11.5068 10.4968 9.97906 11.3786C9.02038 11.9323 8.02581 11.9349 7.06456 11.3914C6.11357 10.8531 5.64961 10.0047 5.62398 9.11777C5.62398 8.13089 5.90081 7.45161 6.40066 6.85692H6.3981ZM11.435 14.2239C11.4274 14.6622 11.0787 14.998 10.6404 14.9929C10.2072 14.9878 9.85602 14.6315 9.85859 14.2034C9.86115 13.7753 10.22 13.419 10.6481 13.4165C11.089 13.4165 11.4427 13.7805 11.435 14.2239ZM6.3699 13.4165C6.79798 13.4216 7.15428 13.7856 7.15428 14.2111C7.15428 14.6417 6.80054 14.9929 6.36734 14.9929C5.92901 14.9929 5.58296 14.6546 5.57784 14.2162C5.57271 13.7702 5.93158 13.4088 6.37247 13.4165H6.3699ZM12.7141 19.9888C12.7141 20.5502 12.404 20.8604 11.8452 20.8604C10.7327 20.8604 9.62277 20.8604 8.51028 20.8604C7.40805 20.8604 6.30326 20.8604 5.20103 20.8604C4.60634 20.8604 4.30386 20.5579 4.3013 19.9658C4.3013 19.0686 4.3013 18.1714 4.3013 17.2743C4.3013 16.7027 4.59608 16.3899 5.15745 16.3899C7.39011 16.3848 9.6202 16.3848 11.8529 16.3899C12.4142 16.3899 12.7141 16.7052 12.7167 17.2717C12.7167 18.1766 12.7167 19.084 12.7167 19.9888H12.7141Z" fill="#1E1E1E"/>
</svg>
