<svg width="62" height="74" viewBox="0 0 62 74" fill="none" xmlns="http://www.w3.org/2000/svg">
<g clip-path="url(#clip0_183_246)">
<path d="M49.0536 73.663C49.0752 73.663 49.0969 73.663 49.1186 73.663C50.8156 73.6594 52.296 73.1044 53.4207 72.151C52.0667 72.8557 50.599 73.3711 49.0518 73.663H49.0536Z" fill="#5FAA4C"/>
<path d="M31.3105 64.133C29.6586 64.133 28.0067 64.133 26.353 64.133C24.4628 64.1312 23.6828 63.349 23.6792 61.4729C23.6792 60.7304 23.6738 59.9861 23.6792 59.2436C23.6937 57.7532 24.5512 56.8845 26.0587 56.8665C27.4145 56.8503 28.7686 56.8593 30.1244 56.8611C30.7093 48.589 37.6185 42.0579 46.055 42.0579C49.6838 42.0579 53.0309 43.2671 55.7119 45.3036C55.7119 32.5531 55.7119 19.8007 55.7227 7.05019C55.7245 4.69112 54.9789 2.73934 53.0779 1.27956C52.1391 0.558681 51.0396 0.248703 49.913 0H5.80787C4.48093 0.277538 3.22619 0.704659 2.19713 1.64541C0.938792 2.79701 0.204007 4.20092 0.0523557 5.90219C0.0198591 6.25903 0.0108322 6.62127 0.0108322 6.97991C0.00902685 26.8798 0.014443 46.7814 0 66.6831C0 68.9863 0.73298 70.9038 2.57987 72.3384C3.76239 73.2557 5.12725 73.6666 6.60404 73.6666C18.7686 73.6738 30.9314 73.6828 43.096 73.6684C37.7539 72.6682 33.3506 69.0151 31.3105 64.1312V64.133ZM47.4812 34.1534C47.4487 35.4186 46.6255 36.2422 45.3418 36.298C44.6721 36.3269 43.9987 36.3035 43.3271 36.3035C42.6555 36.3035 41.9821 36.3269 41.3123 36.2998C40.0395 36.2476 39.1928 35.4366 39.1368 34.1751C39.0935 33.1947 39.0953 32.2089 39.1368 31.2285C39.1892 29.9471 40.081 29.0929 41.3646 29.0712C42.6843 29.0496 44.0059 29.046 45.3238 29.073C46.5749 29.0983 47.4469 29.9651 47.4812 31.2068C47.5083 32.189 47.5083 33.1712 47.483 34.1534H47.4812ZM11.0705 10.9754C18.0591 10.9718 25.0495 10.9754 32.0381 10.9754C36.4089 10.9754 40.7797 10.9754 45.1523 10.9754C46.8872 10.9754 47.4902 11.5773 47.4902 13.302C47.4902 15.1727 47.4957 17.0416 47.4902 18.9123C47.4848 20.372 46.8403 21.0136 45.378 21.0154C39.6369 21.019 33.8976 21.0154 28.1565 21.0154C22.4642 21.0154 16.7719 21.0154 11.0796 21.0154C9.40417 21.0154 8.81742 20.4351 8.81562 18.7771C8.81381 16.9316 8.81381 15.0844 8.81562 13.2389C8.81742 11.6061 9.43847 10.9754 11.0705 10.9754ZM16.5931 61.9145C16.5498 63.212 15.7193 64.0483 14.4105 64.1222C13.7407 64.16 13.0673 64.1294 12.3957 64.1294V64.133C11.771 64.133 11.1463 64.151 10.5235 64.1294C9.08101 64.0771 8.25956 63.2445 8.2379 61.8172C8.22526 60.907 8.21985 59.9969 8.23971 59.0868C8.26859 57.8217 9.06656 56.9386 10.3321 56.8863C11.7223 56.8287 13.1178 56.8287 14.5061 56.8899C15.7284 56.944 16.539 57.8127 16.5877 59.0418C16.6256 59.9987 16.6238 60.9593 16.5913 61.9163L16.5931 61.9145ZM16.5841 48.1078C16.5245 49.355 15.6327 50.184 14.387 50.2164C13.7154 50.2344 13.0438 50.22 12.3704 50.22C11.6988 50.2182 11.0254 50.238 10.3538 50.2128C9.146 50.1677 8.28123 49.3135 8.24512 48.1078C8.21443 47.1022 8.21443 46.0948 8.24512 45.0892C8.28123 43.8691 9.11531 43.0292 10.3556 42.9968C11.7223 42.9608 13.0925 42.9608 14.4592 42.9968C15.6832 43.0292 16.5264 43.8583 16.5841 45.0892C16.6311 46.093 16.6311 47.1022 16.5841 48.106V48.1078ZM16.5841 34.2219C16.5227 35.4474 15.6742 36.244 14.4393 36.2962C13.7443 36.3251 13.0474 36.3016 12.3523 36.3016C12.3523 36.3016 12.3523 36.3016 12.3523 36.2998C11.6807 36.2998 11.0073 36.3269 10.3375 36.2944C9.10267 36.235 8.28123 35.406 8.24693 34.1787C8.21985 33.173 8.21804 32.1656 8.25054 31.16C8.28845 29.9904 9.13697 29.1145 10.3087 29.082C11.6988 29.0424 13.0925 29.0442 14.4845 29.0802C15.6471 29.1091 16.5173 29.9543 16.5823 31.1329C16.6383 32.1602 16.6383 33.1947 16.5859 34.2219H16.5841ZM23.6901 31.1798C23.728 29.9849 24.609 29.1073 25.8132 29.0784C27.1798 29.046 28.5501 29.046 29.9168 29.0784C31.1192 29.1073 31.9966 29.9904 32.0345 31.1852C32.0652 32.1908 32.0652 33.1983 32.0345 34.2039C31.9966 35.3807 31.1661 36.2242 29.9836 36.289C29.265 36.3287 28.5447 36.2962 27.8244 36.2962C27.1275 36.2962 26.4306 36.3269 25.7373 36.289C24.5548 36.2224 23.728 35.3807 23.6919 34.1985C23.6612 33.1929 23.6594 32.1854 23.6919 31.1798H23.6901ZM23.6883 45.1378C23.7189 43.9123 24.5458 43.0383 25.7608 43.0022C27.1762 42.9608 28.5934 42.9608 30.0088 43.0058C31.1516 43.0419 31.9875 43.8979 32.0309 45.0387C32.0688 46.0678 32.0688 47.1004 32.0327 48.1295C31.9911 49.3189 31.0975 50.175 29.8915 50.2146C29.1964 50.238 28.4996 50.2182 27.8027 50.2182C27.1546 50.2182 26.5064 50.2344 25.8583 50.2146C24.6144 50.1768 23.7244 49.3135 23.6883 48.0844C23.6594 47.1022 23.663 46.12 23.6883 45.1378Z" fill="#5FAA4C"/>
<path d="M46.0299 46.6193C52.3469 46.6193 57.4867 51.7501 57.4867 58.056C57.4867 64.3619 52.3469 69.4927 46.0299 69.4927C39.7129 69.4927 34.573 64.3619 34.573 58.056C34.573 51.7501 39.7129 46.6193 46.0299 46.6193ZM46.0299 42.1138C37.2088 42.1138 30.0596 49.2523 30.0596 58.056C30.0596 66.8597 37.2106 73.9982 46.0299 73.9982C54.8491 73.9982 62.0002 66.8597 62.0002 58.056C62.0002 49.2523 54.8491 42.1138 46.0299 42.1138Z" fill="#5FAA4C"/>
<path d="M44.2841 64.3186C43.8057 64.3186 43.3453 64.1293 43.0077 63.7905L38.2109 59.0021C37.505 58.2974 37.5068 57.1566 38.2109 56.4538C38.9168 55.7509 40.0596 55.7509 40.7637 56.4538L44.2841 59.9681L51.2944 52.9701C52.0003 52.2655 53.1431 52.2655 53.8472 52.9701C54.5513 53.6748 54.5513 54.8156 53.8472 55.5184L45.5605 63.7905C45.2211 64.1293 44.7626 64.3186 44.2841 64.3186Z" fill="#5FAA4C"/>
</g>
<defs>
<clipPath id="clip0_183_246">
<rect width="62" height="74" fill="white"/>
</clipPath>
</defs>
</svg>
