<svg width="82" height="83" viewBox="0 0 82 83" fill="none" xmlns="http://www.w3.org/2000/svg">
<path d="M47.3372 5.61265C47.5624 5.61265 47.9392 6.02574 48.0261 6.31086C48.2647 7.0899 48.3829 7.90485 48.559 8.75573C49.3304 8.37856 49.8566 8.16079 50.2356 8.16079C50.9178 8.16079 51.1252 8.86799 51.4128 10.6349C52.3871 10.6573 53.3391 10.7808 53.3547 12.1368C53.8207 12.1997 54.2599 12.2423 54.6947 12.3231C55.7916 12.5274 56.1015 13.0932 55.8652 14.1641C55.7649 14.6153 55.8964 15.1182 55.9254 15.6324C56.0368 15.6503 56.1439 15.6593 56.2464 15.6593C56.7392 15.6593 57.1182 15.4415 57.4036 14.9678C57.5462 14.7321 57.7135 14.4223 57.9364 14.3437C58.1549 14.2674 58.4381 14.1978 58.6788 14.1978C58.8238 14.1978 58.9553 14.2225 59.0467 14.2898C59.2563 14.438 59.2072 14.9903 59.2229 15.3652C59.2474 15.9354 59.2295 16.5102 59.2295 16.8267C60.2797 17.6956 61.2049 18.4567 62.2706 19.339C62.6742 19.4445 63.323 19.642 63.9874 19.779C64.7855 19.9429 65.5904 20.0888 66.3975 20.1831C67.131 20.2684 67.5346 20.7152 67.8155 21.3258C67.9938 21.7142 68.1477 22.0869 68.6181 22.0869C68.6783 22.0869 68.7452 22.0802 68.8165 22.0667C68.8344 22.0645 68.8522 22.0622 68.8723 22.0622C69.0484 22.0622 69.2892 22.188 69.4051 22.3249C69.7685 22.7515 70.1676 22.8929 70.618 22.8929C70.8476 22.8929 71.0884 22.857 71.3448 22.8009C71.3805 22.7941 71.4184 22.7896 71.4563 22.7896C71.7617 22.7896 72.1274 23.0209 72.4373 23.1735C72.7762 23.3419 73.0549 23.6607 73.4049 23.773C74.0626 23.9862 74.7627 24.0648 75.4293 24.2601C76.5285 24.5857 76.7024 25.129 76.038 26.0382C75.8908 26.2403 75.7392 26.4513 75.5542 26.6152C74.4506 27.5918 73.6457 28.7143 73.7393 30.2881C73.7393 30.3151 73.7438 30.3532 73.7282 30.369C72.6714 31.487 73.017 33.0114 72.609 34.318C72.4462 34.8411 72.3682 35.4114 72.3637 35.9614C72.3526 37.1333 71.434 38.083 70.2769 38.083C70.2323 38.083 70.1899 38.083 70.1453 38.0785C70.0383 38.0718 69.9335 38.065 69.7886 38.0561C69.6838 38.6892 69.5032 39.2055 68.7407 39.2617C68.5535 39.2751 68.3662 39.6411 68.2279 39.8768C67.7374 40.7165 67.2135 41.5045 66.1433 41.5875C66.2481 43.067 66.1032 43.323 64.79 43.9875C64.3485 44.2098 63.9628 44.4522 64.0966 45.119C64.7566 44.7778 65.4232 44.5937 66.101 44.5937C66.5045 44.5937 66.9103 44.6588 67.3205 44.7957C67.811 44.9596 68.0094 45.247 68.0161 45.8554C68.0251 46.6142 68.3127 47.3753 68.5155 48.1229C68.5936 48.4125 68.763 48.6819 68.9124 48.9491C69.2825 49.6047 69.1019 50.0604 68.4442 50.3725C68.2725 50.4555 68.1209 50.5835 68.1053 50.597C68.3461 51.2593 68.549 51.861 68.7853 52.4492C68.8522 52.613 68.9971 52.759 69.1376 52.8735C69.996 53.5762 70.1119 54.0903 69.3873 54.9097C68.7519 55.6259 67.9827 56.2231 67.2626 56.8809C67.5033 57.056 67.8489 57.2873 68.17 57.5499C69.1487 58.3514 69.1621 59.685 68.2101 60.491C67.9916 60.6773 67.8868 62.0042 68.0674 62.3072C68.4152 62.8887 69.2491 63.3265 69.9581 63.3265C70.0428 63.3265 70.123 63.3198 70.2033 63.3085C70.4775 63.2636 70.7451 63.1895 71.0193 63.1446C71.1174 63.1289 71.2133 63.1199 71.3047 63.1199C72.1608 63.1199 72.6692 63.8092 72.3905 64.7229C72.279 65.0911 72.0315 65.4144 71.8799 65.7714C71.6971 66.1979 71.5589 66.6425 71.385 67.0735C71.3158 67.2464 71.2445 67.4821 71.1063 67.5562C70.4998 67.8795 69.8622 68.1466 69.2446 68.452C69.1465 68.4991 69.0841 68.6293 69.0194 68.7304C68.9436 68.8471 68.9169 69.02 68.8143 69.0896C68.141 69.5543 67.4788 70.0482 66.7587 70.4276C66.2704 70.6858 65.8557 70.8587 65.8892 71.5344C65.9226 72.2125 65.4477 72.4459 64.9416 72.4459C64.8792 72.4459 64.8168 72.4415 64.7543 72.4347C64.6696 72.4257 64.5893 72.4212 64.5113 72.4212C63.9874 72.4212 63.5816 72.6211 63.1602 72.9466C62.9083 73.1442 62.6385 73.2834 62.3531 73.2834C62.148 73.2834 61.9362 73.2115 61.7132 73.0386C61.6441 72.9848 61.5371 72.9668 61.4212 72.9668C61.2985 72.9668 61.167 72.987 61.0555 73.005C60.8705 73.0341 60.7055 73.0499 60.5583 73.0499C59.9363 73.0499 59.6108 72.767 59.3165 72.0418C58.3667 71.9049 57.3032 71.9767 57.0089 70.8452C56.427 70.6544 55.9254 70.4344 55.4014 70.3401C55.3323 70.3288 55.2632 70.3221 55.1896 70.3221C54.9199 70.3221 54.6322 70.3984 54.3669 70.4658C54.0526 70.5466 53.7939 70.5893 53.5799 70.5893C53.0002 70.5893 52.7438 70.2727 52.5655 69.5408C51.6179 69.1255 50.7729 68.7348 49.9079 68.3958C49.8566 68.3756 49.7942 68.3667 49.7273 68.3667C49.5623 68.3667 49.3728 68.4228 49.2591 68.5103C48.86 68.8112 48.5545 69.2467 48.1354 69.5072C47.5133 69.8911 46.8445 70.2144 46.1623 70.477C45.6784 70.6634 45.4265 70.8632 45.1054 71.3706C44.4254 72.4459 44.9806 73.5685 44.6105 74.6079C44.5258 74.8504 44.9204 75.2523 45.0653 75.5935C45.2058 75.9191 45.3083 76.2603 45.4265 76.5948C45.0943 76.6936 44.7576 76.8822 44.4277 76.8822C44.4165 76.8822 44.4031 76.8822 44.392 76.8822C43.9595 76.8642 43.5381 76.6465 43.1011 76.5701C42.9473 76.5432 42.7957 76.5095 42.653 76.5095C42.4055 76.5095 42.187 76.6083 42.0354 77.0079C41.9551 77.2234 41.4401 77.3851 41.0856 77.3851C41.0544 77.3851 41.0232 77.3851 40.9942 77.3806C40.6107 77.3447 40.2161 77.0887 39.8906 76.8418C39.5784 76.606 39.2819 76.4736 38.9542 76.4736C38.7669 76.4736 38.5707 76.5162 38.3567 76.6083C38.1337 76.7026 37.9197 76.7542 37.719 76.7542C37.3244 76.7542 36.9788 76.5544 36.7202 76.0829C36.6243 75.9078 36.4281 75.7574 36.2431 75.6654C35.1907 75.1423 35.1863 75.149 35.4516 74.0534C35.3958 74.0489 35.3289 74.0287 35.2777 74.0287C35.2554 74.0287 35.2375 74.0332 35.2219 74.0422C34.805 74.3071 34.5665 74.4575 34.3814 74.4575C34.1317 74.4575 33.9756 74.1904 33.6077 73.564C33.5676 73.4944 33.5119 73.3732 33.4673 73.3732C33.4294 73.3754 33.3937 73.3776 33.358 73.3776C32.2232 73.3776 31.7283 72.208 30.8119 71.8645C30.6536 72.2282 30.5912 72.7333 30.3482 72.8456C30.2545 72.8882 30.1475 72.9039 30.0338 72.9039C29.7618 72.9039 29.4497 72.8141 29.1665 72.8007C29.1019 72.7984 29.0394 72.7962 28.9748 72.7962C28.8321 72.7962 28.6894 72.8007 28.5467 72.8007C28.4196 72.8007 28.2948 72.7962 28.1699 72.7805C27.1733 72.657 26.1812 72.5155 25.189 72.3561C25.0798 72.3382 24.9326 72.1833 24.9059 72.0688C24.7654 71.42 24.4533 71.1999 23.9918 71.1999C23.809 71.1999 23.6038 71.2336 23.3764 71.2897C23.2426 71.3234 23.1156 71.3391 22.9929 71.3391C22.3731 71.3391 21.9116 70.9305 21.6998 70.266C21.4724 69.5498 20.9864 69.3096 20.3041 69.1592C19.4257 68.9661 18.5651 68.663 17.7156 68.3577C17.0312 68.1107 16.9554 67.5742 17.4191 66.7031C16.9487 66.2832 16.4582 65.8859 16.019 65.4391C15.5195 64.9295 15.6199 64.3996 16.2865 64.247C17.1382 64.0539 17.5863 63.4971 17.816 62.7473C18.3399 61.0388 18.8482 59.3258 19.2808 57.5926C19.526 56.6115 19.5461 55.5765 19.7802 54.591C20.0098 53.6188 20.3933 52.6871 20.6831 51.7285C20.8593 51.1403 20.9529 50.5251 21.1424 49.9414C21.3988 49.1534 21.711 48.3834 22.0209 47.5437C21.6619 47.2002 21.439 46.8387 21.9161 46.2034C22.2973 45.696 22.4021 44.9686 22.6005 44.3288C22.7633 43.8057 21.9674 42.4586 21.4546 42.1847C20.264 41.5471 18.9932 40.9814 18.982 39.2684C18.9798 38.898 18.5852 38.5185 18.3466 38.1616C17.4726 36.8482 17.4793 36.5474 18.496 35.3126C17.8695 34.8007 17.1872 34.3382 16.6388 33.75C16.4314 33.5278 16.4292 32.9912 16.5139 32.6432C16.5897 32.3244 16.9108 32.0662 17.2296 31.6397C16.8417 31.6397 16.4872 31.6846 16.1661 31.6846C15.9588 31.6846 15.7648 31.6666 15.5887 31.6037C15.1851 31.4623 14.893 31.0066 14.4226 30.5733C14.2309 30.6114 14.0704 30.6339 13.9388 30.6339C13.4216 30.6339 13.3547 30.2702 13.4974 29.0152C13.1919 29.2756 12.9266 29.3834 12.6814 29.3834C12.2533 29.3834 11.8966 29.0578 11.5309 28.6694C11.2946 28.418 10.8933 28.3327 10.5856 28.1396C10.1999 27.8994 9.83201 27.6255 9.39279 27.3224C8.74177 27.5155 8.26911 27.6277 7.9213 27.6277C7.17441 27.6277 7.01611 27.0957 6.92916 25.6723C6.4565 25.3131 5.42645 25.5017 5.57583 24.5161C5.72744 23.526 6.69283 23.8291 7.61139 23.5574C7.17886 23.2948 6.9024 23.187 6.70397 22.9962C6.36731 22.6751 5.81216 22.2867 5.83 21.9567C5.86567 21.3236 6.08193 20.3537 6.50777 20.1584C7.32824 19.7835 8.16209 19.2963 9.11633 19.2963C9.39502 19.2963 9.68263 19.339 9.98585 19.4355C10.1575 19.4916 10.3381 19.5118 10.5276 19.5118C10.9869 19.5118 11.4841 19.3951 11.9501 19.3951C11.9545 19.3951 11.9612 19.3951 11.9657 19.3951C12.26 19.3951 12.552 19.5118 12.8553 19.5792C13.1964 19.1324 13.9388 18.9236 14.6567 18.9236C15.1294 18.9236 15.5931 19.0134 15.9253 19.1863C17.0869 19.788 17.3812 20.9262 17.9364 22.0196C18.2775 21.8512 18.5963 21.7479 18.8482 21.5571C19.2451 21.2607 19.5773 21.1103 19.8538 21.1103C20.2796 21.1103 20.5761 21.4628 20.779 22.1835C20.8169 22.3137 20.837 22.4506 20.8414 22.4753C21.2093 22.1273 21.5683 21.5234 21.9941 21.4695C22.0053 21.4695 22.0186 21.4695 22.0298 21.4695C22.3754 21.4695 22.7856 22.0465 23.0487 22.2575C23.2293 21.1979 23.4924 20.0888 23.5749 18.9685C23.6128 18.4679 23.3051 17.9336 23.1223 17.4262C22.9506 16.9457 22.6273 16.4945 22.5693 16.005C22.4846 15.2844 22.547 14.539 22.6117 13.8094C22.6295 13.6051 22.8346 13.3267 23.0197 13.2548C23.0665 13.2369 23.1223 13.2279 23.1825 13.2279C23.3608 13.2279 23.5771 13.2975 23.6752 13.4053C24.0943 13.861 24.567 14.0698 25.1065 14.0698C25.2738 14.0698 25.4499 14.0496 25.6305 14.0114C25.7553 13.9845 25.8869 13.9778 26.0162 13.9778C26.0808 13.9778 26.1477 13.9778 26.2124 13.9822C27.3026 14.0137 27.7664 14.7186 27.2201 15.6571C26.8835 16.2385 27.0061 16.4226 27.5813 16.582C28.4107 16.8133 29.2312 17.0782 30.0405 17.37C30.453 17.5182 30.8298 17.7629 31.2311 17.9493C31.4652 18.057 31.8085 18.2703 31.978 18.2703C32.0069 18.2703 32.0315 18.2636 32.0493 18.2501C32.3837 17.9897 32.7672 17.5945 32.8274 17.2039C33.0481 15.794 33.5587 15.0801 34.912 14.6872C35.4716 14.5255 36.0469 14.4178 36.6199 14.31C38.2028 14.0114 39.8215 13.8116 40.9496 12.5881C41.0187 11.9841 41.0745 11.3645 41.1659 10.7494C41.3175 9.7256 41.5114 8.70859 41.6541 7.68259C41.7701 6.85641 42.2338 6.30862 43.0075 6.17167C44.4277 5.91573 45.8613 5.73163 47.2971 5.60816C47.3015 5.60816 47.306 5.60816 47.3127 5.60816M47.3372 -1.32374e-05C47.1789 -1.32374e-05 47.0184 0.00672195 46.8601 0.0201923C45.2169 0.161631 43.605 0.372667 42.0532 0.6533C38.9296 1.21457 36.6154 3.66842 36.1606 6.90356C36.0914 7.39074 36.0067 7.90037 35.9175 8.43694C35.8997 8.54245 35.8819 8.65022 35.864 8.75573C35.7815 8.77145 35.7013 8.78492 35.6188 8.80064L35.5653 8.80962C34.9209 8.93085 34.1897 9.0678 33.3893 9.30128C32.658 9.51457 31.8687 9.83112 31.1084 10.3026C29.9 9.12392 28.2346 8.42795 26.3908 8.37632C26.3261 8.37632 26.2637 8.37183 26.199 8.37183C25.2938 7.88689 24.2638 7.62198 23.2003 7.62198C22.4489 7.62198 21.7199 7.75668 21.0332 8.02384C18.8705 8.86125 17.2809 10.9918 17.0758 13.3222C17.0668 13.4232 17.0579 13.5265 17.049 13.6343C16.146 13.3806 15.3033 13.3155 14.6701 13.3155C13.6512 13.3155 12.6791 13.4793 11.7918 13.7869C11.4105 13.7937 11.0716 13.8273 10.8019 13.8588C10.2512 13.7465 9.69155 13.6881 9.12971 13.6881C7.07408 13.6881 5.48219 14.4492 4.53241 14.9027C4.42762 14.9544 4.3206 15.0037 4.21581 15.0509C1.89041 16.1128 0.454593 18.515 0.27623 21.6379C0.256164 22.0016 0.267312 22.3451 0.302985 22.6729C0.204885 22.9939 0.126851 23.3262 0.0755722 23.6674C-0.254399 25.8362 0.481347 27.9488 2.04648 29.3587C2.07323 29.4238 2.10445 29.4889 2.13343 29.5562C3.18577 31.8305 5.40639 33.2426 7.93022 33.2426C8.02609 33.2426 8.12196 33.2426 8.21783 33.2382C8.48537 33.4739 8.81088 33.7276 9.19436 33.97C9.26571 34.0598 9.34151 34.1496 9.41955 34.2394C9.97693 34.8681 10.6436 35.362 11.3838 35.701C11.5822 36.1904 11.8408 36.6529 12.153 37.075C12.2421 38.9384 13.1027 40.346 13.62 41.1318C13.95 42.609 14.6768 43.9336 15.767 45.0292C15.9209 45.1841 16.0769 45.3278 16.233 45.4648C16.0836 46.1203 16.039 46.7894 16.1037 47.4561C16.0167 47.6964 15.932 47.9456 15.8495 48.1993C15.6712 48.7471 15.5597 49.2387 15.4683 49.6316C15.4281 49.8067 15.3813 50.0065 15.3546 50.0986C15.2743 50.3635 15.1695 50.6688 15.0603 50.9899C14.8306 51.6611 14.5698 52.4222 14.3646 53.2911C14.1841 54.0566 14.0926 54.7638 14.0191 55.3318C13.9745 55.6798 13.9277 56.0413 13.8831 56.2254C13.5955 57.3771 13.2655 58.54 12.9288 59.6693C11.7048 60.464 10.8019 61.6562 10.3827 63.0953C9.78742 65.1405 10.2801 67.307 11.7026 68.9908C11.7762 69.3343 11.8743 69.6441 11.979 69.9202C12.6479 71.6669 14.0213 72.9893 15.8451 73.6448C16.4069 73.8469 16.9665 74.0444 17.544 74.224C18.5896 75.6182 20.0901 76.5544 21.8046 76.8508C22.5381 77.3851 23.3965 77.7555 24.3173 77.9014C25.3919 78.0721 26.4599 78.2247 27.4921 78.3527C27.8266 78.3931 28.1721 78.4133 28.5489 78.4133C28.6337 78.4133 28.7206 78.4133 28.8053 78.4111C29.0952 78.456 29.521 78.5144 30.036 78.5144C30.1564 78.5144 30.2791 78.5121 30.3972 78.5054C30.8387 78.905 31.3269 79.235 31.8486 79.4865C32.1853 79.7761 32.5264 80.0096 32.8475 80.2004C34.1049 81.5789 35.8395 82.3669 37.7257 82.3669C37.8907 82.3669 38.0579 82.3601 38.2229 82.3489C38.8472 82.6363 39.6097 82.8855 40.4792 82.9686C40.6821 82.9888 40.8894 82.9977 41.0968 82.9977C41.9351 82.9977 42.8893 82.8383 43.8056 82.4679C43.9238 82.4791 44.0464 82.4881 44.1713 82.4926C44.2582 82.4971 44.3474 82.4971 44.4366 82.4971C45.6807 82.4971 46.6305 82.1356 47.0897 81.9605L47.112 81.9515L52.6725 80.2902L51.0382 75.699C51.881 76.0493 52.7617 76.2042 53.5866 76.2042C53.8096 76.2042 54.0347 76.1952 54.2621 76.1728C54.6256 76.4332 55.018 76.6622 55.4393 76.8552C55.7403 76.9922 56.0346 77.1022 56.3178 77.1898C57.8918 78.4717 59.6621 78.6603 60.5673 78.6603C60.5896 78.6603 60.6119 78.6603 60.6341 78.6603C61.1938 78.8152 61.7712 78.896 62.3598 78.896C63.1914 78.896 64.3642 78.7276 65.6194 78.0249C67.2135 77.8745 68.656 77.1853 69.7306 76.047C70.1609 75.5913 70.5177 75.0816 70.7919 74.5294C71.0817 74.3363 71.3493 74.1477 71.5945 73.9771C71.7194 73.8895 71.842 73.802 71.9669 73.7167C72.3035 73.4854 72.6112 73.2227 72.8877 72.9286C73.1507 72.8029 73.4294 72.666 73.7148 72.5133C75.0213 71.8173 75.9778 70.6903 76.5597 69.1614L76.5642 69.1524C76.6734 68.8808 76.7626 68.6338 76.8406 68.4138C76.883 68.2948 76.9276 68.1758 76.9632 68.0815C76.9632 68.0815 76.9655 68.077 76.9677 68.0748C77.1461 67.7515 77.4805 67.1521 77.7213 66.3663C78.3812 64.2043 78.0267 61.9615 76.7448 60.2171C76.1294 59.3774 75.3446 58.7129 74.4506 58.2527C74.426 58.0281 74.3926 57.8036 74.348 57.5836C75.358 55.9986 75.5051 54.4967 75.4204 53.4392C75.3424 52.4649 75.0592 51.5534 74.5732 50.7092C74.8541 49.1938 74.5732 47.6066 73.7616 46.1652C73.746 46.1136 73.7304 46.062 73.717 46.0103C73.6747 45.8644 73.6189 45.6758 73.5877 45.5568C73.5543 44.7194 73.3848 43.9269 73.095 43.204C73.1307 43.1726 73.1664 43.1389 73.202 43.1074C74.134 42.7191 74.9879 42.1421 75.7192 41.3967C77.1305 39.9554 77.9197 38.0426 77.9376 36.0108C77.9376 35.9839 77.9376 35.9637 77.942 35.9502C78.2408 34.9758 78.33 34.1137 78.3968 33.4806C78.3968 33.4649 78.4013 33.4469 78.4013 33.4312C78.9163 32.6387 79.2218 31.7317 79.2976 30.7731C79.8973 30.2298 80.2964 29.682 80.5149 29.3834L80.5327 29.3587C82.4613 26.714 82.0778 24.3208 81.6765 23.1286C81.2752 21.9365 80.1359 19.797 76.9967 18.8697C76.4661 18.7126 75.9889 18.6138 75.6077 18.5352C75.407 18.405 75.1685 18.2658 74.8987 18.1311C74.8831 18.1221 74.8563 18.1087 74.8318 18.0952C74.299 17.8146 73.231 17.2533 71.7818 17.1792C71.7729 17.1747 71.764 17.1702 71.7528 17.1635C70.56 15.7244 68.9146 14.8152 67.0329 14.5974C66.4956 14.5345 65.8847 14.4313 65.1088 14.2719C65.033 14.2561 64.9528 14.2382 64.8725 14.218L64.7499 14.1169C64.7387 14.0159 64.7276 13.9126 64.712 13.8049C64.4667 12.1099 63.6017 10.6551 62.2795 9.70764C61.4479 9.1127 60.4759 8.74226 59.4391 8.62103C58.8394 8.05303 58.0367 7.50972 56.9799 7.1348C56.6879 6.83621 56.3646 6.56455 56.0123 6.32209C55.2855 4.75279 54.0526 3.58535 52.5677 2.98817C51.4864 1.3358 49.618 -0.0022583 47.3417 -0.0022583L47.3372 -1.32374e-05Z" fill="#5FAA4C"/>
</svg>
