<svg width="94" height="80" viewBox="0 0 94 80" fill="none" xmlns="http://www.w3.org/2000/svg">
<g clip-path="url(#clip0_183_225)">
<path d="M25.7631 78.5419C23.8801 78.1108 22.5072 76.9181 21.2392 75.5386C20.4121 74.6404 19.5111 73.8094 18.6626 72.9304C17.8522 72.0921 17.8021 71.0359 18.5029 70.2935C19.2322 69.5223 20.3263 69.5414 21.1867 70.3845C22.3999 71.5724 23.5798 72.7963 24.7882 73.989C26.0825 75.2655 27.3719 75.2584 28.6781 73.9722C29.5505 73.1148 30.4062 72.2454 31.2666 71.376C32.6633 69.9606 32.6324 68.8277 31.2332 67.4123C28.0298 64.1718 24.8549 60.9026 21.6515 57.6597C18.8437 54.8192 16.0193 51.9955 13.1924 49.1741C12.7729 48.755 12.3272 48.3574 11.8624 47.991C11.1521 47.4305 9.88409 47.4808 9.13329 48.1826C7.93676 49.3011 6.76646 50.4531 5.66051 51.6626C4.75 52.6589 4.87395 53.9762 5.90124 55.0371C7.14544 56.3209 8.42538 57.5711 9.67911 58.8452C10.2559 59.432 10.4275 60.1266 10.0795 60.8978C9.75062 61.6307 9.1452 62.021 8.37056 61.9228C7.93438 61.8678 7.44576 61.6378 7.12637 61.3337C5.74631 60.0164 4.38771 58.6752 3.08393 57.2837C0.931614 54.9845 0.919696 51.4662 3.05771 49.1502C4.18988 47.9239 5.36257 46.7312 6.59246 45.6055C8.31336 44.032 10.337 43.656 12.5727 44.3074C12.8611 44.3913 13.3307 44.408 13.5094 44.238C15.2875 42.5207 17.0251 40.7556 18.7698 39.0048C18.8914 38.8827 19.001 38.7462 19.1131 38.6192C15.5426 34.8854 16.9369 29.6499 21.1843 27.8919C18.8962 23.9401 20.7887 19.4518 25.0933 18.2256C24.7167 16.5251 24.8645 14.8678 25.775 13.3325C26.6903 11.7925 28.0584 10.8585 29.641 10.425C29.6911 9.28734 29.5838 8.19041 29.8127 7.17253C30.5801 3.76919 33.8718 1.81006 37.3279 2.54533C37.6663 2.61718 38.1335 2.52138 38.4148 2.3226C39.9783 1.22328 41.6945 1.38135 43.4011 1.6927C47.2576 2.39205 51.1022 3.16565 54.9587 3.87457C55.6833 4.0087 56.446 3.92726 57.173 4.04941C60.7531 4.65056 62.9435 7.74494 62.3738 11.3375C62.3452 11.5147 62.3357 11.6919 62.3071 11.953C63.9803 12.4248 65.3652 13.3349 66.2852 14.863C67.2124 16.3982 67.3554 18.0555 66.9907 19.7704C70.7853 21.0469 72.3584 23.8731 71.7411 27.7219C74.1079 28.3973 75.7549 29.8774 76.3841 32.3083C77.0038 34.7105 76.253 36.7775 74.5012 38.5929C75.9813 40.0802 77.4257 41.5292 78.8701 42.9782C79.0179 43.1267 79.1871 43.2584 79.3087 43.4237C79.9546 44.305 80.6244 44.5158 81.7709 44.1182C83.785 43.4213 85.7299 43.9266 87.3197 45.3804C88.571 46.5252 89.7771 47.7299 90.9212 48.9825C93.0878 51.356 93.0902 54.8863 90.8306 57.1759C84.3856 63.7143 77.9072 70.2168 71.3954 76.6882C69.0405 79.0281 65.4295 78.9491 63.0365 76.6283C61.9663 75.5913 60.9056 74.5423 59.8807 73.4597C58.0668 71.5437 57.6092 69.3187 58.5841 66.8542C58.7771 66.3656 58.6675 66.1117 58.3362 65.7836C56.1791 63.6425 54.0435 61.4774 51.8816 59.341C51.6742 59.135 51.3406 58.9506 51.0593 58.9386C49.131 58.8596 47.2004 58.8213 45.2697 58.783C44.6167 58.771 43.9374 58.6848 43.3153 58.8309C42.655 58.9865 41.9209 59.2404 41.4442 59.6907C39.4135 61.6187 37.4757 63.6449 35.4807 65.6136C35.1112 65.9776 35.0373 66.2435 35.2781 66.7488C36.3959 69.1007 35.9693 71.6467 34.1721 73.5411C33.1257 74.6428 32.1151 75.8068 30.9329 76.7433C29.9819 77.4953 28.7973 77.9504 27.7152 78.5372H25.7535L25.7631 78.5419ZM16.2004 46.6881C21.7373 52.2829 27.2003 57.7986 32.7039 63.3575C34.7465 61.2978 36.8607 59.1973 38.9367 57.0609C40.0546 55.9113 41.3941 55.2671 42.9697 55.2311C44.631 55.1928 46.3018 55.1761 47.9536 55.3246C50.8567 55.5856 53.4428 55.2144 55.3758 52.6804C56.1052 51.7248 57.2993 51.7631 58.0406 52.5128C58.801 53.2816 58.7223 54.2827 57.8976 55.2192C57.1301 56.091 56.4127 57.0107 55.7596 57.8058C57.4233 59.4919 59.3539 61.451 61.2298 63.3503C66.6499 57.88 72.1176 52.3643 77.4353 46.9994C75.6095 45.1481 73.7146 43.2273 71.803 41.2897C71.4407 41.637 71.0379 42.0801 70.5755 42.4513C69.7222 43.1339 68.5924 42.9566 67.9918 42.0872C67.465 41.3232 67.5675 40.4299 68.3207 39.6587C69.6126 38.3366 70.9473 37.0577 72.2201 35.7189C73.2713 34.6124 73.2498 33.0221 72.244 32.009C71.2214 30.9791 69.6865 30.9456 68.5471 31.9563C68.0585 32.3898 67.62 32.8831 67.1504 33.3382C66.2161 34.2483 65.1697 34.3226 64.3974 33.5394C63.649 32.7802 63.7348 31.688 64.6334 30.7707C65.594 29.7912 66.5879 28.8451 67.5198 27.8416C68.5495 26.7327 68.5305 25.14 67.5365 24.1269C66.4973 23.0683 64.929 23.0635 63.7753 24.1341C63.251 24.6203 62.7647 25.1448 62.2547 25.6478C61.3013 26.5866 60.1953 26.6728 59.435 25.8753C58.6913 25.0969 58.7867 24.0455 59.7019 23.1114C60.765 22.0265 61.8733 20.9823 62.8958 19.859C63.9112 18.7429 63.8087 17.1478 62.7552 16.1587C61.7327 15.1983 60.2025 15.215 59.1203 16.2162C58.6174 16.6808 58.1503 17.1837 57.664 17.6675C56.6439 18.6806 55.5713 18.8172 54.7776 18.034C53.9743 17.2412 54.0911 16.1491 55.0922 15.1384C56.079 14.1445 57.0705 13.1553 58.0573 12.1614C58.6818 11.5339 58.994 10.777 58.8629 9.88849C58.708 8.82749 58.1264 8.07785 57.1015 7.72578C56.0337 7.35934 55.1041 7.65153 54.3223 8.42273C52.8183 9.91004 51.3453 11.4309 49.8294 12.9062C49.4099 13.3158 49.3217 13.6032 49.5887 14.1876C51.138 17.5765 49.4051 21.5427 45.9085 22.6899C45.296 22.8911 44.6405 22.9629 43.966 23.1019C43.9326 23.2456 43.8825 23.4156 43.8563 23.5904C43.3629 26.9243 41.5229 28.79 38.1812 29.2667C37.6473 29.3433 37.5996 29.6115 37.5543 30.0355C37.2302 32.9957 35.0659 35.1824 32.1151 35.5608C31.8601 35.5943 31.6098 35.6542 31.4191 35.6901C31.2761 36.3895 31.2046 37.017 31.0163 37.6085C29.8794 41.1651 25.9228 42.8824 22.481 41.3568C22.214 41.2394 21.7254 41.1747 21.5705 41.3256C19.7137 43.1291 17.8999 44.978 16.198 46.6905L16.2004 46.6881ZM67.2815 74.9901C67.9513 74.5949 68.6496 74.3506 69.124 73.8764C75.4522 67.5727 81.7542 61.2427 88.0491 54.9054C89.2217 53.7247 89.217 52.3811 88.0705 51.1955C87.1195 50.2112 86.1494 49.2412 85.1674 48.288C84.0162 47.1695 82.6623 47.1431 81.5325 48.2712C75.1757 54.63 68.8284 61.0008 62.493 67.3811C61.4037 68.478 61.4109 69.848 62.4787 70.9617C63.4655 71.9939 64.4594 73.0262 65.5201 73.9818C65.9801 74.3962 66.6117 74.6165 67.2815 74.9877V74.9901ZM37.2182 25.6981C38.727 25.6717 39.5565 25.1879 40.0379 24.17C40.5146 23.1593 40.3097 21.9977 39.4492 21.1236C37.3374 18.98 35.2185 16.8436 33.0733 14.736C31.903 13.5864 30.3132 13.5936 29.2525 14.6809C28.2205 15.7371 28.23 17.3107 29.3455 18.4531C31.4477 20.6038 33.5619 22.7474 35.7262 24.8359C36.2076 25.3005 36.9131 25.528 37.2182 25.6981ZM33.0423 8.78198C33.3784 9.38553 33.6239 10.0705 34.0672 10.5759C34.9467 11.5818 35.9383 12.4895 36.8845 13.4379C38.5864 15.1456 40.2691 16.8724 41.9948 18.5513C43.4106 19.9284 45.5343 19.5692 46.3113 17.8663C46.9025 16.5754 46.4663 15.5264 45.2078 14.9396C41.7135 13.311 39.0964 10.777 37.5519 7.19648C37.1539 6.27439 36.6891 5.92472 35.6689 5.99657C34.2436 6.09955 33.2044 7.23719 33.0399 8.77719L33.0423 8.78198ZM34.1149 29.3074C33.9028 28.7972 33.8098 28.1697 33.4547 27.7937C31.6932 25.9328 29.9032 24.0982 28.0417 22.3402C27.0621 21.4158 25.4937 21.5906 24.5594 22.539C23.6417 23.4707 23.4511 24.9891 24.352 25.9591C26.1111 27.8584 27.9511 29.6882 29.8365 31.4605C30.6135 32.1934 31.6551 32.1694 32.6014 31.6832C33.5214 31.2114 33.9838 30.4067 34.1125 29.305L34.1149 29.3074ZM20.6671 34.0687C20.7386 34.3034 20.7482 34.8016 20.9984 35.0746C21.9328 36.0973 22.8599 37.1607 23.9587 37.9846C24.9002 38.6911 26.3041 38.2935 27.0883 37.3858C27.8987 36.4493 27.9988 35.0674 27.1956 34.1022C26.4948 33.2616 25.7106 32.476 24.874 31.7719C24.0612 31.0869 23.0864 31.027 22.1234 31.5108C21.1557 31.9994 20.7076 32.8209 20.6671 34.0663V34.0687ZM50.6541 6.72466C47.3911 6.23128 44.1733 5.27566 40.6267 5.06011C41.642 8.14491 43.7014 9.95794 46.0301 11.3878C47.6056 9.79987 49.1024 8.28861 50.6541 6.72226V6.72466Z" fill="#5FAA4C"/>
<path d="M27.9648 79.4998H25.6528L25.5479 79.4759C23.3264 78.9681 21.7676 77.5287 20.5353 76.1899C20.0658 75.6798 19.5533 75.1744 19.06 74.6858C18.7024 74.3338 18.3354 73.9697 17.9755 73.5985C16.8099 72.3938 16.7432 70.7628 17.8086 69.6347C18.3187 69.0958 18.9884 68.7893 19.694 68.7749C20.4615 68.7605 21.2266 69.0887 21.8487 69.697C22.5065 70.3413 23.162 71.0047 23.7984 71.6442C24.349 72.1998 24.8972 72.7555 25.4549 73.3039C26.3773 74.214 27.0709 74.2092 28.01 73.2871C28.8276 72.4824 29.6499 71.6513 30.4436 70.8466L30.589 70.7005C31.602 69.6754 31.5949 69.139 30.5556 68.0875C28.9301 66.4446 27.3141 64.792 25.6957 63.1418C24.1225 61.5371 22.5518 59.9325 20.9739 58.335C18.221 55.5472 15.4013 52.7306 12.6745 50.0075L12.5196 49.8518C12.1192 49.4518 11.6997 49.0782 11.273 48.7405C10.9441 48.4795 10.2052 48.4842 9.78331 48.8794C8.45331 50.1224 7.33306 51.2433 6.36296 52.3043C5.58594 53.1545 6.25809 54.0263 6.58463 54.3616C7.29015 55.0897 8.02427 55.8226 8.73218 56.5315C9.27562 57.0752 9.81906 57.6189 10.3577 58.1673C11.2277 59.0511 11.4422 60.1887 10.9488 61.2881C10.4364 62.4257 9.42817 63.0173 8.25071 62.8688C7.61431 62.7897 6.93024 62.464 6.46784 62.0233C4.84705 60.4761 3.55042 59.1756 2.38726 57.935C-0.12258 55.255 -0.136881 51.1954 2.35628 48.4938C3.61477 47.1311 4.78984 45.9527 5.94823 44.8917C7.88365 43.1218 10.2028 42.614 12.8342 43.3828C12.8795 43.3948 12.9367 43.4044 12.9844 43.4068C14.362 42.0728 15.7373 40.6884 17.0697 39.3496L17.8253 38.5904C16.3833 36.7438 15.8184 34.5164 16.2712 32.3561C16.7027 30.2988 18.0303 28.5241 19.8966 27.4535C19.0909 25.571 19.0337 23.5257 19.7631 21.7126C20.5187 19.8349 22.0417 18.362 24.0081 17.5788C23.7912 15.852 24.1059 14.2593 24.952 12.8367C25.8172 11.3805 27.1019 10.3123 28.6965 9.71595C28.6965 9.5914 28.6965 9.46686 28.6965 9.34232C28.6965 8.56154 28.6965 7.75202 28.8753 6.95448C29.7429 3.10807 33.5398 0.75615 37.5179 1.60159C37.5989 1.61836 37.7944 1.57764 37.8635 1.53214C39.7679 0.195714 41.8058 0.425636 43.5649 0.744175C45.6338 1.12019 47.7336 1.52256 49.762 1.91295C51.5187 2.25065 53.3349 2.59793 55.1225 2.92844C55.4252 2.98353 55.7613 2.9955 56.1165 3.00508C56.505 3.01706 56.9054 3.03143 57.3225 3.10088C61.3173 3.77388 63.8724 7.27062 63.3385 11.2847C64.9736 11.905 66.2369 12.9397 67.0949 14.3647C67.953 15.7849 68.2748 17.3896 68.0555 19.1476C71.4568 20.575 73.1109 23.3436 72.7796 27.0583C75.1274 27.9541 76.6838 29.6713 77.3011 32.0663C77.9042 34.3967 77.4013 36.5762 75.8067 38.5521L79.5416 42.3003C79.5798 42.3386 79.6179 42.3745 79.6584 42.4105C79.7824 42.5254 79.9373 42.6691 80.0756 42.8559C80.4307 43.3397 80.6428 43.4954 81.4604 43.2128C83.7533 42.42 86.063 42.9374 87.9626 44.6714C89.2354 45.8353 90.4677 47.0664 91.6261 48.3358C94.1669 51.1164 94.1168 55.2095 91.5117 57.8512C85.2049 64.2483 78.6645 70.8155 72.0693 77.3707C69.3569 80.0675 65.1881 80.0459 62.378 77.3204C61.4937 76.463 60.3305 75.3229 59.1936 74.123C57.1152 71.9244 56.5979 69.2898 57.7015 66.5044C57.692 66.4949 57.6824 66.4829 57.6705 66.4709C56.6814 65.4889 55.697 64.5022 54.7126 63.5154C53.5685 62.3682 52.3863 61.1851 51.216 60.0283C51.1492 59.9636 51.0443 59.9085 51.0014 59.8989C49.1614 59.8247 47.2617 59.7864 45.424 59.7505H45.2548C45.0903 59.7433 44.9259 59.7361 44.759 59.7289C44.3085 59.7073 43.8819 59.6882 43.5363 59.7696C42.683 59.9708 42.2849 60.2199 42.1014 60.3947C40.8334 61.5994 39.5749 62.8688 38.3593 64.095C37.6395 64.8207 36.8958 65.5728 36.1521 66.3032C36.145 66.3104 36.1378 66.3176 36.1331 66.3224C36.1355 66.3296 36.1378 66.3344 36.1426 66.3416C37.4345 69.0623 36.9578 72.0034 34.8674 74.2068C34.6648 74.42 34.4646 74.6355 34.2644 74.8511C33.4159 75.7612 32.5387 76.7025 31.5305 77.5024C30.7916 78.0868 29.9598 78.4939 29.1565 78.8891C28.8133 79.0568 28.4891 79.2148 28.1745 79.3873L27.9624 79.5022L27.9648 79.4998ZM25.8744 77.5838H27.4881C27.7669 77.4377 28.0506 77.2988 28.3247 77.1647C29.0707 76.7983 29.7762 76.4534 30.353 75.9959C31.2492 75.287 32.0382 74.4392 32.8772 73.541C33.0822 73.3207 33.2872 73.1027 33.4921 72.8848C35.0152 71.2801 35.3656 69.1414 34.4265 67.1655C34.0213 66.3104 34.1452 65.6015 34.8221 64.9333C35.5563 64.2076 36.2975 63.4603 37.015 62.737C38.2425 61.4988 39.5105 60.2199 40.8 58.996C41.322 58.5026 42.0752 58.1434 43.1072 57.8991C43.7103 57.7578 44.3181 57.7841 44.852 57.8105C45.0021 57.8177 45.1499 57.8249 45.2977 57.8272H45.4669C47.3141 57.868 49.2257 57.9039 51.1063 57.9829C51.6974 58.0069 52.2433 58.347 52.5579 58.6583C53.7329 59.8199 54.9176 61.0078 56.0616 62.1551C57.0437 63.1394 58.0257 64.1238 59.0124 65.1033C59.4129 65.5009 59.8943 66.15 59.4748 67.2086C58.643 69.309 59.0053 71.1364 60.576 72.7986C61.6867 73.9721 62.8308 75.093 63.7008 75.936C65.7483 77.9215 68.7705 77.9503 70.7298 76.0031C77.3202 69.4527 83.8558 62.8927 90.1578 56.498C92.0337 54.594 92.0623 51.6409 90.2222 49.6267C89.1019 48.4004 87.9102 47.2077 86.6803 46.0844C85.7197 45.2055 84.1418 44.3073 82.0825 45.0186C80.5689 45.5432 79.4439 45.215 78.5406 43.9864C78.512 43.9457 78.4333 43.8738 78.3666 43.8115C78.3094 43.7589 78.2522 43.7038 78.195 43.6487L73.161 38.5952L73.8141 37.9174C75.4229 36.2481 75.9616 34.4877 75.4587 32.5406C74.9391 30.5287 73.6377 29.2522 71.4782 28.6343L70.6631 28.4019L70.7989 27.5613C71.3543 24.0957 69.9718 21.7749 66.6874 20.6708L65.8793 20.4002L66.0581 19.5643C66.4013 17.9548 66.2083 16.5777 65.4694 15.3562C64.7257 14.1252 63.6055 13.3109 62.0466 12.8726L61.272 12.6546L61.3554 11.8499C61.365 11.7661 61.3721 11.6894 61.3769 11.6224C61.3912 11.4571 61.4055 11.3206 61.4269 11.1841C61.9156 8.10888 60.0564 5.50309 57.0103 4.99056C56.7195 4.94266 56.3977 4.93068 56.0593 4.9211C55.6493 4.90673 55.225 4.89476 54.7817 4.81333C52.9869 4.48281 51.1659 4.13314 49.4069 3.79544C47.3809 3.40744 45.2882 3.00508 43.2264 2.63146C41.4173 2.30334 40.1374 2.2746 38.9552 3.10567C38.457 3.45535 37.7205 3.60623 37.1246 3.4793C34.1262 2.84222 31.3803 4.52113 30.7368 7.38079C30.6033 7.96997 30.6033 8.63818 30.6057 9.34472C30.6057 9.70637 30.6057 10.0776 30.589 10.4632L30.558 11.1601L29.8883 11.3446C28.4391 11.7421 27.3307 12.5732 26.5919 13.8186C25.8577 15.0545 25.6718 16.4268 26.0222 18.0147L26.2176 18.8961L25.3524 19.1428C23.56 19.6529 22.1704 20.8504 21.5364 22.4311C20.9 24.0143 21.0693 25.7818 22.0084 27.408L22.5566 28.3564L21.546 28.7756C19.7559 29.5156 18.5141 30.967 18.1399 32.7537C17.7609 34.5596 18.3663 36.454 19.7988 37.9533L20.409 38.5928L19.8227 39.2538C19.7917 39.2897 19.7583 39.3281 19.7273 39.364C19.6439 39.4622 19.5486 39.5724 19.4389 39.6825L18.4188 40.7076C17.034 42.0991 15.6039 43.5385 14.1642 44.93C13.5135 45.5575 12.4242 45.2653 12.3027 45.227C10.322 44.6498 8.66306 45.0043 7.23056 46.3144C6.11031 47.337 4.97337 48.4795 3.75302 49.8015C1.95108 51.7535 1.96061 54.6898 3.77447 56.6273C4.9114 57.8416 6.1842 59.1158 7.77877 60.639C7.95039 60.8019 8.24594 60.9432 8.48429 60.9719C8.72503 61.0031 8.99675 60.9719 9.2065 60.5025C9.34951 60.1863 9.36858 59.8965 8.99675 59.5181C8.46284 58.9745 7.92178 58.4356 7.38311 57.8967C6.66805 57.183 5.93155 56.4453 5.21411 55.7053C3.81499 54.2611 3.7125 52.3762 4.95669 51.0134C5.96015 49.9141 7.11377 48.7597 8.48191 47.4807C9.56164 46.4724 11.3397 46.3623 12.4481 47.2388C12.9343 47.622 13.4086 48.046 13.8615 48.4986L14.0164 48.6543C16.7456 51.3798 19.5653 54.1988 22.323 56.9914C23.9033 58.5913 25.4764 60.1983 27.0519 61.8054C28.6679 63.4532 30.2815 65.1033 31.9047 66.7439C33.6828 68.5426 33.6924 70.279 31.9381 72.0561L31.7951 72.2022C30.9966 73.0117 30.1695 73.85 29.3424 74.6643C27.674 76.3049 25.7695 76.3097 24.1178 74.6787C23.5553 74.1254 23.0023 73.5626 22.4469 73.0021C21.8177 72.3675 21.167 71.7088 20.5187 71.0741C20.2684 70.8298 19.9943 70.6933 19.744 70.6933C19.7393 70.6933 19.7345 70.6933 19.7297 70.6933C19.5319 70.6981 19.3507 70.7843 19.191 70.9568C18.6929 71.4837 19.1315 72.0489 19.3412 72.2669C19.6844 72.6213 20.0443 72.9758 20.3923 73.3207C20.9024 73.8236 21.4315 74.3457 21.9321 74.8918C22.9975 76.0486 24.2107 77.1743 25.8697 77.5862L25.8744 77.5838ZM67.2928 76.0941L66.8161 75.8283C66.6206 75.7181 66.418 75.6199 66.2226 75.5241C65.7626 75.299 65.2882 75.0643 64.8783 74.6954C63.8367 73.7566 62.9023 72.7914 61.7868 71.625C60.3615 70.1353 60.3734 68.157 61.8154 66.7032C68.2867 60.1864 74.6936 53.7581 80.8574 47.5909C82.3423 46.106 84.292 46.1084 85.827 47.5981C86.8495 48.592 87.8339 49.5764 88.7516 50.5272C90.2699 52.0983 90.2556 54.0335 88.7206 55.5807C82.7165 61.6234 76.2691 68.1043 69.7931 74.5565C69.3664 74.9804 68.8587 75.2415 68.3653 75.493C68.1532 75.6007 67.9554 75.7037 67.7623 75.8163L67.2928 76.0941ZM83.3267 48.3932C82.9501 48.3932 82.5782 48.58 82.2064 48.9513C76.0426 55.1161 69.6381 61.5443 63.1693 68.0588C62.2659 68.9689 62.6688 69.7784 63.1669 70.2981C64.0655 71.2394 65.0856 72.3052 66.1558 73.2704C66.368 73.462 66.6897 73.6201 67.0639 73.8045C67.1331 73.838 67.1998 73.8715 67.2689 73.9051C67.3476 73.8643 67.4262 73.8236 67.5025 73.7853C67.8958 73.5841 68.2366 73.4117 68.4512 73.1985C74.9248 66.7487 81.3698 60.2702 87.3715 54.2299C88.1652 53.43 88.17 52.6779 87.3834 51.866C86.4801 50.9296 85.51 49.9596 84.5017 48.98C84.0989 48.5896 83.708 48.3956 83.3243 48.3956L83.3267 48.3932ZM32.7032 64.7177L14.8554 46.688L16.5787 44.9516C17.9778 43.5385 19.4246 42.0776 20.9096 40.6334C21.4816 40.0777 22.4398 40.2885 22.8664 40.4777C24.287 41.1076 25.9006 41.1076 27.2902 40.4801C28.6512 39.8645 29.6523 38.7389 30.1099 37.3114C30.2172 36.9761 30.2815 36.6073 30.3578 36.181C30.3983 35.9583 30.4389 35.7283 30.4865 35.4912L30.6152 34.8637L31.2421 34.744C31.2922 34.7344 31.3494 34.7224 31.4089 34.7104C31.5734 34.6769 31.7784 34.6338 31.9929 34.6051C34.517 34.2793 36.3285 32.4424 36.605 29.9252C36.6479 29.5348 36.7623 28.4954 38.047 28.3133C40.9359 27.9014 42.4828 26.3542 42.9118 23.4442C42.9356 23.2766 42.9761 23.1233 43.0071 23.0012C43.0167 22.9604 43.0262 22.9221 43.0357 22.8838L43.1716 22.2827L43.7722 22.1581C43.9963 22.1126 44.2203 22.0719 44.4396 22.0336C44.8615 21.9593 45.2572 21.8899 45.6123 21.7749C47.021 21.3127 48.1698 20.266 48.7657 18.8985C49.364 17.5237 49.3497 15.9526 48.7228 14.5826C48.2985 13.6558 48.4368 12.9253 49.1661 12.214C50.029 11.3733 50.8966 10.5015 51.7332 9.65607C52.372 9.0142 53.0084 8.36994 53.6519 7.73526C54.7364 6.66229 56.0354 6.34375 57.4059 6.81557C58.7407 7.27302 59.594 8.31486 59.8014 9.74708C59.9682 10.8895 59.5964 11.9577 58.7264 12.8367C58.264 13.3013 57.8016 13.7659 57.3368 14.2306C56.8101 14.7575 56.2833 15.2844 55.7613 15.8137C55.3943 16.1849 55.1917 16.5514 55.194 16.8483C55.194 16.913 55.194 17.1118 55.4372 17.3489C55.8304 17.7369 56.3524 17.6147 56.9841 16.9849C57.1485 16.8196 57.313 16.6543 57.4751 16.4867C57.7921 16.1634 58.1186 15.8305 58.4642 15.5095C59.9158 14.1635 61.9894 14.1396 63.3933 15.4568C64.8425 16.8148 64.9283 19.0302 63.5888 20.5055C62.9047 21.2576 62.1801 21.9785 61.477 22.6754C61.1075 23.0443 60.7357 23.4107 60.371 23.7843C59.8252 24.3424 59.737 24.8238 60.1112 25.2142C60.2685 25.377 60.433 25.4585 60.6189 25.4609C60.6213 25.4609 60.6261 25.4609 60.6285 25.4609C60.9145 25.4609 61.2506 25.286 61.5747 24.9651C61.7654 24.7783 61.9513 24.5867 62.1396 24.3975C62.4518 24.0789 62.776 23.7484 63.1168 23.4323C64.6518 22.0096 66.7898 22.0192 68.2033 23.4562C69.5762 24.8549 69.5762 27.0224 68.2033 28.4977C67.5979 29.1492 66.9615 29.7815 66.3465 30.3922C65.9961 30.7419 65.6434 31.0916 65.2978 31.4436C65.0523 31.6951 64.5374 32.3346 65.0594 32.8639C65.2024 33.01 65.6434 33.4555 66.4728 32.6483C66.6445 32.4807 66.8137 32.3082 66.9805 32.1358C67.2713 31.8364 67.574 31.5275 67.9029 31.2353C69.4141 29.894 71.5187 29.9324 72.9059 31.3287C74.3027 32.7322 74.2979 34.9044 72.8988 36.3774C72.1456 37.1701 71.3614 37.9485 70.6059 38.703C70.0743 39.2323 69.5237 39.7807 68.9898 40.3268C68.3677 40.9639 68.6657 41.3974 68.7634 41.5387C68.9016 41.7399 69.0971 41.8692 69.314 41.9003C69.538 41.9338 69.7645 41.8644 69.9718 41.6991C70.2531 41.474 70.5224 41.2034 70.7822 40.9423C70.9038 40.8202 71.023 40.7028 71.1374 40.5926L71.8143 39.946L78.7718 46.9969L61.2196 64.7058L54.4671 57.8608L55.0177 57.1926C55.2107 56.9579 55.4109 56.7112 55.6159 56.4573C56.1117 55.8442 56.6265 55.2071 57.1771 54.582C57.9136 53.7461 57.5108 53.339 57.3583 53.1857C57.1724 52.9989 56.9316 52.8983 56.7076 52.9127C56.4859 52.927 56.2905 53.0444 56.126 53.2599C53.7496 56.3759 50.4604 56.5076 47.8624 56.2753C46.2058 56.1268 44.4754 56.1507 42.9857 56.1843C41.6962 56.213 40.5926 56.7183 39.613 57.7267C38.14 59.2403 36.6384 60.7492 35.1844 62.2101C34.5766 62.8209 33.9736 63.4268 33.3753 64.0304L32.7008 64.7129L32.7032 64.7177ZM17.5464 46.6904L32.7056 62.0018C33.0822 61.6234 33.4612 61.2426 33.8425 60.8594C35.2917 59.4032 36.7909 57.8991 38.2568 56.3926C39.5844 55.0275 41.1623 54.3161 42.9499 54.273C44.4921 54.2371 46.2845 54.2132 48.0411 54.3712C51.2636 54.661 53.1681 54.0024 54.622 52.0983C55.1225 51.4421 55.8233 51.0541 56.5956 51.0038C57.3702 50.9535 58.1472 51.2577 58.7216 51.8373C59.8252 52.951 59.7823 54.5293 58.6144 55.8537C58.09 56.4501 57.5895 57.068 57.1056 57.6668C57.0842 57.6931 57.0651 57.7171 57.0437 57.7434L61.2339 61.9898L76.0927 46.9969L71.7952 42.6404C71.6022 42.8272 71.3948 43.0188 71.1684 43.1984C70.5486 43.6942 69.7955 43.9074 69.047 43.7948C68.3058 43.6846 67.6527 43.2703 67.2093 42.6284C66.4109 41.4716 66.5753 40.0729 67.6431 38.9808C68.1842 38.4275 68.7396 37.8743 69.2758 37.3402C70.0243 36.5953 70.7965 35.8241 71.533 35.0529C72.2123 34.3392 72.2266 33.3405 71.5712 32.6819C70.8966 32.0041 69.9361 31.9993 69.1781 32.6699C68.8993 32.9166 68.6371 33.1872 68.3558 33.4746C68.177 33.659 67.9959 33.8434 67.8124 34.0231C66.5062 35.2924 64.864 35.3691 63.7199 34.2123C62.5972 33.0746 62.6926 31.3838 63.9535 30.0976C64.3062 29.7384 64.6637 29.3839 65.0189 29.0294C65.6195 28.4307 66.2416 27.8128 66.8232 27.1877C67.493 26.4668 67.5073 25.4632 66.8566 24.7998C66.1725 24.1053 65.1953 24.1196 64.4206 24.8381C64.1132 25.1232 63.8176 25.4225 63.5077 25.7411C63.3123 25.9399 63.1192 26.1363 62.9214 26.3326C62.2159 27.0272 61.4198 27.3912 60.5999 27.3745C59.8991 27.3649 59.2603 27.0751 58.7455 26.5386C57.6419 25.3842 57.7516 23.7364 59.0196 22.4383C59.3914 22.0599 59.768 21.6839 60.1446 21.3103C60.8287 20.6301 61.5366 19.9283 62.1873 19.2122C62.8332 18.5009 62.7975 17.5118 62.0991 16.8579C61.4341 16.2352 60.4735 16.2592 59.7632 16.9178C59.451 17.2052 59.1554 17.5094 58.8408 17.8303C58.6716 18.0027 58.5024 18.1752 58.3307 18.3476C56.9388 19.7296 55.2822 19.8757 54.1072 18.7165C53.578 18.1943 53.2968 17.5525 53.292 16.8579C53.2872 16.034 53.6757 15.2053 54.4146 14.4581C54.9414 13.9264 55.4681 13.3995 55.9973 12.8702C56.4597 12.408 56.9221 11.9457 57.3821 11.4811C57.8302 11.0308 57.9994 10.5686 57.9208 10.0249C57.8135 9.29921 57.456 8.85613 56.7934 8.6286C56.1141 8.39629 55.5587 8.54238 54.9914 9.10282C54.3527 9.73511 53.7186 10.3722 53.0846 11.0117C52.2409 11.8619 51.3685 12.7409 50.4938 13.5911C50.458 13.627 50.4294 13.6558 50.4103 13.6773C50.4199 13.7037 50.4342 13.7396 50.4556 13.7851C51.3089 15.6484 51.328 17.7944 50.5128 19.6673C49.7 21.533 48.1293 22.9676 46.2058 23.5975C45.7243 23.7556 45.2405 23.8418 44.7733 23.9232C44.1798 27.511 42.0704 29.6162 38.5023 30.1838C38.1138 33.5369 35.6039 36.0732 32.2432 36.5067C32.2432 36.5091 32.2432 36.5139 32.2432 36.5163C32.1597 36.9905 32.0811 37.436 31.9333 37.8958C31.3088 39.8478 29.9407 41.3854 28.0816 42.226C26.201 43.0763 24.0224 43.0763 22.1061 42.226C22.0894 42.2189 22.0656 42.2117 22.0393 42.2069C20.6378 43.572 19.2673 44.9564 17.9397 46.2976L17.556 46.6832L17.5464 46.6904ZM25.1236 39.3017C24.4705 39.3017 23.858 39.1029 23.3884 38.7509C22.3373 37.9605 21.453 36.9905 20.5973 36.0517L20.297 35.7211C19.9275 35.3164 19.8394 34.8134 19.7798 34.4805C19.7702 34.4278 19.7631 34.3799 19.7536 34.3416L19.7059 34.1883L19.713 34.035C19.7679 32.428 20.4352 31.2903 21.6961 30.6557C23.0237 29.9851 24.4062 30.1264 25.4883 31.0389C26.3773 31.7885 27.1973 32.6148 27.9266 33.489C29.0064 34.7847 28.9563 36.6887 27.8075 38.0156C27.0304 38.9137 26.0389 39.3041 25.1236 39.3041V39.3017ZM21.7271 34.4542L22.006 34.7607C22.8021 35.6349 23.6244 36.5379 24.5301 37.2204C25.045 37.6084 25.9126 37.2875 26.3702 36.7606C26.8993 36.1475 26.9399 35.29 26.4655 34.72C25.8077 33.9297 25.0664 33.1872 24.2632 32.507C23.765 32.0855 23.2049 32.04 22.5518 32.3705C22.1085 32.5932 21.6914 32.9453 21.627 33.98C21.6389 34.0374 21.6484 34.0949 21.658 34.15C21.6747 34.241 21.7009 34.3895 21.7271 34.4566V34.4542ZM31.2755 32.9908C30.4961 32.9908 29.7691 32.7106 29.1851 32.1621C27.1401 30.2389 25.331 28.4235 23.653 26.6129C22.4445 25.3076 22.5446 23.2239 23.8818 21.8659C25.2213 20.5055 27.3808 20.405 28.6941 21.6432C30.3292 23.1856 32.0096 24.8789 34.1452 27.135C34.5385 27.5517 34.7006 28.0595 34.8436 28.5097C34.8936 28.6678 34.9413 28.8163 34.9914 28.9384L35.0891 29.1707L35.0605 29.4222C34.8865 30.8904 34.2048 31.9394 33.0345 32.5406C32.4434 32.8447 31.8451 32.9932 31.2755 32.9932V32.9908ZM26.4774 22.6922C26.0198 22.6922 25.5526 22.8934 25.238 23.2143C24.7113 23.7508 24.4896 24.7016 25.0497 25.3076C26.6967 27.0847 28.4772 28.869 30.4889 30.7634C31.018 31.2616 31.695 31.0748 32.1669 30.8329C32.5363 30.6437 32.9725 30.3084 33.1322 29.415C33.0941 29.3049 33.0607 29.1995 33.0274 29.0917C32.9511 28.8498 32.8557 28.5504 32.7628 28.4546C30.6534 26.2273 28.9968 24.5579 27.388 23.0395C27.1305 22.7976 26.8064 22.6898 26.4751 22.6898L26.4774 22.6922ZM36.9792 26.6608L36.7552 26.5362C36.6932 26.5003 36.6074 26.4644 36.5097 26.4213C36.1235 26.2464 35.5372 25.983 35.0676 25.5279C32.8367 23.3748 30.6748 21.1785 28.6679 19.1236C27.1925 17.6147 27.1544 15.464 28.5726 14.0102C30.0265 12.5205 32.2003 12.5373 33.74 14.0509C36.0878 16.3574 38.3879 18.6829 40.1278 20.4505C41.2624 21.6025 41.558 23.1856 40.9001 24.5819C40.247 25.9638 39.0839 26.6248 37.2366 26.6584L36.9792 26.6632V26.6608ZM31.0991 14.8293C30.6796 14.8293 30.272 15.0018 29.9335 15.3514C29.2519 16.0508 29.29 17.0256 30.0265 17.78C32.0215 19.823 34.1738 22.0072 36.3857 24.1436C36.6193 24.3687 36.9911 24.5364 37.2891 24.6705C37.3344 24.692 37.3797 24.7112 37.4226 24.7304C38.5214 24.6705 38.9146 24.3112 39.1744 23.758C39.4843 23.1018 39.3317 22.3689 38.7692 21.7965C37.034 20.0337 34.7411 17.7177 32.4053 15.4209C32.0048 15.0281 31.5448 14.8293 31.0991 14.8293ZM43.9725 20.3594C43.0143 20.3594 42.0776 19.9691 41.3315 19.241C40.1159 18.0578 38.9051 16.834 37.7348 15.6508C37.2271 15.1383 36.7218 14.6258 36.2117 14.1156C35.94 13.8426 35.6635 13.5719 35.387 13.3013C34.7053 12.6355 34.0022 11.9481 33.3539 11.208C32.963 10.7626 32.708 10.2429 32.4839 9.78301C32.391 9.5938 32.3028 9.41417 32.2098 9.24652L32.062 8.98067L32.093 8.6789C32.3099 6.64073 33.7186 5.17976 35.6015 5.04325C36.9816 4.94505 37.854 5.49112 38.426 6.81796C39.8251 10.0632 42.242 12.5038 45.6075 14.0725C47.3547 14.8868 47.9696 16.5322 47.1759 18.2686C46.6849 19.3463 45.7553 20.084 44.6303 20.2972C44.411 20.3379 44.1917 20.3594 43.9725 20.3594ZM34.0308 8.61184C34.0856 8.72201 34.1405 8.83218 34.1929 8.93996C34.3812 9.32556 34.56 9.692 34.7816 9.94587C35.3799 10.6308 36.0282 11.2631 36.7123 11.9313C36.9935 12.2068 37.2772 12.4846 37.556 12.7624C38.0661 13.275 38.5738 13.7875 39.0839 14.3024C40.2494 15.4784 41.4531 16.6951 42.6568 17.8686C43.1239 18.3237 43.715 18.5225 44.2799 18.4171C44.7971 18.3189 45.2119 17.9836 45.4455 17.4734C45.8054 16.6879 45.6147 16.1921 44.8067 15.8161C41.0026 14.0438 38.2687 11.2751 36.6789 7.58437C36.4119 6.96645 36.2808 6.92095 35.7398 6.95927C34.8746 7.02154 34.2263 7.66101 34.0332 8.61423L34.0308 8.61184ZM46.1724 12.602L45.5313 12.2068C43.4552 10.9302 40.9168 8.99983 39.7203 5.36179L39.2793 4.02057L40.6832 4.1044C42.9904 4.24331 45.1499 4.68399 47.2379 5.1127C48.463 5.36418 49.619 5.59889 50.7965 5.77852L52.6604 6.06113L46.1748 12.602H46.1724ZM42.1085 6.15694C42.8951 7.70173 44.094 8.9663 45.8936 10.1662L48.6823 7.35445C48.0673 7.23709 47.4572 7.11255 46.8565 6.99041C45.3168 6.67426 43.7341 6.35093 42.1085 6.15694Z" fill="#5FAA4C"/>
<path d="M13.8313 67.4626C12.8087 67.4746 12.0126 66.6771 12.0245 65.6592C12.0365 64.7036 12.8397 63.8869 13.7883 63.8725C14.768 63.8581 15.607 64.7084 15.5951 65.7023C15.5831 66.6866 14.818 67.4507 13.8336 67.4602L13.8313 67.4626Z" fill="#5FAA4C"/>
<path d="M13.8096 68.4207C13.0659 68.4207 12.3747 68.138 11.8623 67.6207C11.3427 67.0986 11.0638 66.3993 11.0709 65.6496C11.0876 64.1647 12.3008 62.9384 13.7738 62.9169C14.496 62.9025 15.2039 63.1995 15.7283 63.724C16.2575 64.2533 16.5578 64.979 16.5483 65.7167C16.5316 67.2184 15.3422 68.4063 13.843 68.4231C13.843 68.4231 13.8215 68.4231 13.812 68.4231L13.8096 68.4207ZM13.812 64.8305C13.812 64.8305 13.8048 64.8305 13.8024 64.8305C13.3686 64.8377 12.9825 65.2281 12.9777 65.6688C12.9754 65.8987 13.0588 66.1095 13.2113 66.2651C13.3686 66.4232 13.5975 66.507 13.8215 66.5046C14.2911 66.4998 14.6367 66.1574 14.6414 65.6927C14.6438 65.47 14.5485 65.2473 14.3816 65.0796C14.2219 64.9215 14.0146 64.8305 13.812 64.8305Z" fill="#5FAA4C"/>
<path d="M13.8097 68.6602C13.0041 68.6602 12.2533 68.3512 11.6932 67.7884C11.1283 67.2208 10.8232 66.4591 10.8327 65.6448C10.8518 64.0306 12.1675 62.699 13.7692 62.675C14.551 62.663 15.3257 62.984 15.8953 63.554C16.4697 64.1288 16.7939 64.9191 16.7868 65.7191C16.7677 67.3501 15.4758 68.6434 13.8455 68.6626C13.8455 68.6626 13.8217 68.6626 13.8097 68.6626V68.6602ZM13.8121 65.07C13.8121 65.07 13.8074 65.07 13.805 65.07C13.5047 65.0748 13.2186 65.367 13.2163 65.6712C13.2139 65.8843 13.3044 66.0185 13.3783 66.0951C13.4546 66.1717 13.5928 66.2652 13.8097 66.2652H13.8193C14.1601 66.2604 14.3985 66.0256 14.4032 65.6903C14.4032 65.5323 14.3365 65.3718 14.2149 65.2497C14.1005 65.1347 13.9551 65.07 13.8121 65.07Z" fill="#5FAA4C"/>
<path d="M13.8096 69.6182C12.7489 69.6182 11.7574 69.2086 11.0185 68.4661C10.2724 67.7165 9.86724 66.7106 9.87916 65.6352C9.903 63.506 11.643 61.7505 13.7548 61.7194C14.794 61.705 15.8165 62.1241 16.5673 62.8762C17.3229 63.633 17.7495 64.6724 17.7376 65.7286C17.7138 67.8866 16.0072 69.5942 13.8549 69.6182H13.8096ZM13.8143 63.633C13.8143 63.633 13.7953 63.633 13.7834 63.633C12.6917 63.6497 11.7955 64.5575 11.7836 65.6544C11.7764 66.21 11.9838 66.7274 12.3652 67.1106C12.7441 67.4914 13.2566 67.7021 13.8072 67.7021H13.8334C14.9417 67.6902 15.8189 66.8136 15.8308 65.7071C15.8379 65.1634 15.6139 64.6269 15.2206 64.2317C14.8393 63.8509 14.3268 63.633 13.812 63.633H13.8143ZM13.8286 67.2231C13.3853 67.2231 12.992 67.0627 12.7036 66.7729C12.4128 66.4831 12.2555 66.0879 12.2627 65.6616C12.2722 64.8353 12.9706 64.1264 13.7905 64.1144H13.812C14.2029 64.1144 14.5961 64.282 14.8869 64.5742C15.1896 64.8784 15.3612 65.2903 15.3565 65.7047C15.3469 66.5621 14.6915 67.2159 13.831 67.2255L13.8286 67.2231ZM13.8096 65.3071C13.6284 65.3071 13.4497 65.4939 13.4473 65.6807C13.4473 65.7789 13.4783 65.8699 13.5379 65.9298C13.6022 65.9945 13.6999 66.0304 13.8096 66.0304V65.3095V65.3071ZM13.8167 65.3071L13.8334 66.028C14.0479 66.016 14.1671 65.8867 14.1695 65.6831C14.1695 65.6161 14.1409 65.5059 14.0527 65.4173C13.974 65.3382 13.8787 65.3095 13.8167 65.3071Z" fill="#5FAA4C"/>
<path d="M62.4667 49.8807C61.4823 49.8975 60.7005 49.155 60.6647 48.1659C60.629 47.1528 61.4203 46.305 62.419 46.2906C63.3962 46.2762 64.2519 47.1336 64.24 48.118C64.2281 49.0808 63.4392 49.864 62.4643 49.8831L62.4667 49.8807Z" fill="#5FAA4C"/>
<path d="M62.4333 50.8387C60.9579 50.8387 59.7661 49.6891 59.7137 48.1994C59.6875 47.4473 59.9544 46.7312 60.4693 46.1875C60.9793 45.6487 61.6658 45.3445 62.4047 45.3325C63.1269 45.3182 63.8443 45.6199 64.3735 46.1516C64.905 46.6833 65.2029 47.4042 65.1934 48.1299C65.1743 49.5981 63.9587 50.8147 62.4809 50.8387C62.4643 50.8387 62.4476 50.8387 62.4309 50.8387H62.4333ZM62.4452 47.2485C62.4452 47.2485 62.438 47.2485 62.4357 47.2485C62.214 47.2509 62.0066 47.3443 61.8541 47.5072C61.6944 47.6749 61.611 47.8976 61.6205 48.1323C61.6372 48.5946 61.978 48.9251 62.4357 48.9251C62.4404 48.9251 62.4476 48.9251 62.4523 48.9251C62.91 48.9179 63.2842 48.549 63.2913 48.106C63.2937 47.8952 63.1984 47.6773 63.0315 47.5096C62.8671 47.3443 62.6549 47.2509 62.4476 47.2509L62.4452 47.2485Z" fill="#5FAA4C"/>
<path d="M62.4335 51.0782C60.827 51.0782 59.5328 49.828 59.4756 48.2089C59.447 47.3898 59.7377 46.6138 60.2979 46.0223C60.8532 45.4355 61.5993 45.105 62.4025 45.093C63.1819 45.0834 63.9685 45.4043 64.5429 45.9815C65.1197 46.5587 65.4439 47.3419 65.4343 48.1323C65.4153 49.7298 64.0924 51.0518 62.4883 51.0782C62.4693 51.0782 62.4526 51.0782 62.4335 51.0782ZM62.4478 47.488C62.4478 47.488 62.443 47.488 62.4407 47.488C62.2285 47.4904 62.0903 47.6054 62.0259 47.6724C61.9592 47.7419 61.8495 47.8952 61.8567 48.1227C61.8686 48.458 62.1022 48.6831 62.4454 48.6831C62.7743 48.6783 63.0461 48.4173 63.0508 48.1011C63.0508 47.955 62.9841 47.7994 62.8602 47.6772C62.741 47.5575 62.5884 47.488 62.4454 47.488H62.4478Z" fill="#5FAA4C"/>
<path d="M62.4335 52.0362C60.3169 52.0362 58.5984 50.3717 58.5221 48.2449C58.484 47.1671 58.8677 46.1444 59.6066 45.3637C60.3384 44.5877 61.3275 44.1518 62.3882 44.135C63.4345 44.123 64.4642 44.547 65.2174 45.3014C65.9754 46.0606 66.402 47.0953 66.3877 48.1419C66.3615 50.2519 64.6192 51.9979 62.505 52.0338H62.4335V52.0362ZM62.4359 46.051C62.4359 46.051 62.4216 46.051 62.4144 46.051C61.8733 46.0606 61.3657 46.2834 60.9891 46.6833C60.6077 47.0881 60.4075 47.6174 60.4289 48.1754C60.4695 49.2843 61.3323 50.1202 62.4359 50.1202H62.4716C63.568 50.101 64.469 49.2029 64.4833 48.1179C64.4904 47.5862 64.2664 47.0522 63.8731 46.657C63.4918 46.2762 62.9578 46.0486 62.4382 46.0486L62.4359 46.051ZM62.4645 49.6412C61.5849 49.6412 60.9366 49.0161 60.9056 48.1563C60.889 47.7276 61.0415 47.3228 61.3347 47.0114C61.6183 46.7121 61.9973 46.5396 62.4049 46.53H62.4478C62.8411 46.53 63.2391 46.7001 63.5347 46.9971C63.8397 47.3012 64.0114 47.7084 64.0042 48.1132C63.9947 48.9394 63.3035 49.6268 62.4645 49.6412ZM62.4454 47.7252C62.2452 47.7299 62.0998 47.888 62.0974 48.0892C62.0974 48.197 62.1308 48.2976 62.188 48.355C62.2452 48.4125 62.3405 48.4461 62.4454 48.4461V47.7252ZM62.4573 47.7252L62.4883 48.4437C62.5431 48.4365 62.6408 48.4149 62.7171 48.3335C62.8077 48.2353 62.8125 48.1203 62.8101 48.0892C62.8029 47.9168 62.6242 47.7347 62.4573 47.7276V47.7252Z" fill="#5FAA4C"/>
</g>
<defs>
<clipPath id="clip0_183_225">
<rect width="93" height="79" fill="white" transform="translate(0.5 0.5)"/>
</clipPath>
</defs>
</svg>
