<svg width="27" height="26" viewBox="0 0 27 26" fill="none" xmlns="http://www.w3.org/2000/svg">
<path d="M25.4688 25.9974H0.561025C0.374892 25.8112 0.188757 25.6251 0.00262416 25.439C0.00262416 25.3027 0.00262416 25.169 0.00262416 25.0326C0.170406 24.7076 0.388004 24.4585 0.794351 24.469C0.97262 24.4742 1.15088 24.469 1.32653 24.469C1.64374 24.469 1.96358 24.469 2.27031 24.469V7.66456C1.93212 7.85594 1.62277 8.02896 1.31605 8.20199C0.694728 8.54804 0.306727 8.43269 0 7.80613V7.44959C0.112729 7.20578 0.2779 7.02489 0.519087 6.88857C4.51178 4.64973 8.50184 2.40826 12.4893 0.156314C12.8537 -0.0507919 13.1709 -0.0534135 13.5353 0.156314C15.5067 1.27574 17.486 2.38205 19.4627 3.4936C21.4682 4.62089 23.4764 5.74818 25.4793 6.88071C25.6366 6.96984 25.7939 7.09043 25.8988 7.232C26.1032 7.51251 26.056 7.89264 25.8227 8.14431C25.5815 8.40385 25.2198 8.47464 24.8947 8.30161C24.5172 8.09975 24.1449 7.88478 23.749 7.66194V24.4716C24.2629 24.4716 24.761 24.4664 25.2591 24.4716C25.6261 24.4769 25.9118 24.7049 26.0036 25.051C26.0901 25.3813 25.9354 25.7247 25.613 25.9082C25.5632 25.9371 25.516 25.9685 25.4688 26V25.9974ZM19.9058 15.2751C19.9058 13.2853 19.9031 11.2955 19.9058 9.30306C19.9058 8.92031 19.7773 8.6398 19.4339 8.4458C17.4467 7.33424 15.4648 6.21744 13.4829 5.09802C13.1656 4.91713 12.8694 4.91713 12.5496 5.09802C10.5991 6.20171 8.64602 7.30541 6.68507 8.39337C6.27872 8.61882 6.11881 8.92031 6.11881 9.37646C6.1293 13.3141 6.12406 17.2544 6.12406 21.192C6.12406 21.9051 6.39408 22.1777 7.10453 22.1777C11.0448 22.1777 14.9824 22.1777 18.9227 22.1777C19.6331 22.1777 19.9058 21.9051 19.9058 21.1972C19.9058 19.2232 19.9058 17.2491 19.9058 15.2777V15.2751Z" fill="#1E1E1E"/>
<path d="M7.66029 20.6285V20.3113C7.66029 16.8403 7.66029 13.3667 7.65504 9.89567C7.65504 9.6807 7.72059 9.57059 7.90935 9.4631C9.55047 8.55079 11.1863 7.62799 12.8196 6.70256C12.9638 6.62129 13.066 6.61867 13.2128 6.70256C14.8697 7.6411 16.5291 8.57176 18.1912 9.50243C18.3145 9.57059 18.3748 9.64399 18.3748 9.79605C18.3695 13.3457 18.3721 16.8927 18.3695 20.4423C18.3695 20.5 18.359 20.5577 18.3512 20.6311H7.66029V20.6285Z" fill="#1E1E1E"/>
</svg>
