<svg width="24" height="24" viewBox="0 0 24 24" fill="none" xmlns="http://www.w3.org/2000/svg">
<path d="M12.426 0.00540782H15.6119C15.953 0.17449 16.134 0.426629 16.131 0.830052C16.1251 8.27855 16.1251 15.727 16.1251 23.1755C16.1251 23.7213 15.8522 23.9913 15.3034 23.9913C13.3515 23.9913 11.3997 23.9913 9.44782 23.9913C8.84268 23.9913 8.58461 23.7332 8.58461 23.1192C8.58461 20.3071 8.58461 17.4979 8.58461 14.6859C8.58461 11.6809 8.58461 8.67307 8.58461 5.66816C8.58461 5.0304 8.83378 4.78122 9.48045 4.78122C10.2072 4.78122 10.934 4.78122 11.6577 4.78122C11.7349 4.78122 11.809 4.78122 11.9069 4.78122C11.9069 4.67444 11.9069 4.59138 11.9069 4.50832C11.9069 3.32178 11.9188 2.13524 11.901 0.948706C11.895 0.512653 12.0226 0.195254 12.4231 0.00244141L12.426 0.00540782Z" fill="#1E1E1E"/>
<path d="M0.525045 0.00537109H6.66241C6.99168 0.171486 7.18449 0.408794 7.18153 0.806284C7.17559 8.27258 7.17856 15.7359 7.17559 23.2022C7.17559 23.7154 6.89379 23.9912 6.37468 23.9912C4.52368 23.9912 2.67268 23.9912 0.821679 23.9912C0.275871 23.9912 0.00593396 23.7183 0.00593396 23.1696C0.00593396 20.6541 0.00593396 18.1416 0.00593396 15.6261C0.00593396 15.0774 0.275868 14.8104 0.827609 14.8104C1.15984 14.8104 1.49207 14.8104 1.82134 14.8104V9.18918C1.5069 9.18918 1.20433 9.18918 0.901767 9.18918C0.252137 9.18918 0.00593396 8.9489 0.00593396 8.30521C0.00593396 5.85204 0.0118654 3.40184 0 0.948669C0 0.512616 0.118652 0.192251 0.522075 0.00537109H0.525045Z" fill="#1E1E1E"/>
<path d="M23.9977 0.521552V23.4781C23.8108 23.8815 23.4875 24.0031 23.0515 23.9972C21.4971 23.9794 19.9427 23.9913 18.3913 23.9913C17.7803 23.9913 17.5311 23.7391 17.5311 23.1192C17.5311 16.6466 17.5311 10.174 17.5252 3.69851C17.5252 3.28322 17.6735 3.01625 18.0383 2.81454C19.7321 1.88607 21.417 0.939807 23.1049 0.00244141C23.2294 0.00244141 23.354 0.00244141 23.4786 0.00244141C23.71 0.115163 23.882 0.284244 23.9948 0.518586L23.9977 0.521552Z" fill="#1E1E1E"/>
</svg>
