<svg width="27" height="22" viewBox="0 0 27 22" fill="none" xmlns="http://www.w3.org/2000/svg">
<path d="M13.4307 19.0526C9.50455 19.0526 5.57843 19.0526 1.64974 19.0526C0.555029 19.0526 0 18.4849 0 17.3599C0 12.305 0 7.2502 0 2.19536C0 1.07033 0.555029 0.5 1.64974 0.5C9.502 0.5 17.3568 0.5 25.2091 0.5C26.3063 0.5 26.8614 1.07033 26.8614 2.19536C26.8614 7.2502 26.8614 12.305 26.8614 17.3599C26.8614 18.4979 26.3063 19.0552 25.1809 19.0552C21.265 19.0552 17.3466 19.0552 13.4307 19.0552V19.0526ZM2.39916 9.75808C2.39148 13.5134 5.3866 16.5968 9.05951 16.6124C12.7964 16.6281 15.8196 13.5759 15.8298 9.77891C15.8401 6.03662 12.8296 2.95059 9.15414 2.94017C5.43008 2.92976 2.40683 5.97933 2.39916 9.75808ZM21.3341 4.40376C22.0247 4.40376 22.7127 4.40376 23.4033 4.40376C23.7588 4.40376 23.9762 4.22146 23.9839 3.92718C23.9916 3.62249 23.7691 3.42717 23.3982 3.42717C22.0298 3.42717 20.6614 3.42717 19.2905 3.42717C18.9298 3.42717 18.7201 3.60686 18.7124 3.90114C18.7047 4.20844 18.9247 4.39855 19.2981 4.40115C19.9785 4.40376 20.6563 4.40115 21.3366 4.40115L21.3341 4.40376ZM21.3392 8.31012C22.0196 8.31012 22.6974 8.31012 23.3777 8.31012C23.7588 8.31012 23.9788 8.13043 23.9813 7.82834C23.9865 7.52364 23.7639 7.33353 23.3905 7.33353C22.0324 7.33353 20.6716 7.33353 19.3135 7.33353C18.9324 7.33353 18.715 7.51062 18.7099 7.81532C18.7047 8.12782 18.9298 8.31012 19.3314 8.31012C20.0015 8.31012 20.6691 8.31012 21.3392 8.31012ZM21.3341 12.2165C22.0247 12.2165 22.7127 12.2165 23.4033 12.2165C23.7588 12.2165 23.9762 12.0342 23.9813 11.7399C23.989 11.4352 23.7665 11.2425 23.3956 11.2399C22.0272 11.2399 20.6588 11.2399 19.2879 11.2399C18.9273 11.2399 18.7175 11.4196 18.7099 11.7139C18.7022 12.0212 18.9221 12.2113 19.2956 12.2139C19.9759 12.2165 20.6537 12.2139 21.3341 12.2139V12.2165ZM21.3264 16.1228C22.017 16.1228 22.705 16.1228 23.3956 16.1228C23.7665 16.1228 23.989 15.9275 23.9813 15.6228C23.9737 15.3286 23.7588 15.1489 23.4033 15.1463C22.0349 15.1463 20.6665 15.1463 19.2956 15.1463C18.9221 15.1463 18.7022 15.339 18.7099 15.6437C18.7175 15.9406 18.9273 16.1176 19.2879 16.1202C19.9683 16.1228 20.6461 16.1202 21.3264 16.1202V16.1228Z" fill="#1E1E1E"/>
<path d="M6.2332 20.05C6.2332 20.2376 6.24087 20.399 6.2332 20.5605C6.20507 21.0787 5.81629 21.4824 5.30218 21.4902C4.32257 21.5032 3.34552 21.5032 2.3659 21.4902C1.85435 21.4824 1.46558 21.0735 1.44256 20.5553C1.43489 20.3938 1.44256 20.2323 1.44256 20.05H6.23576H6.2332Z" fill="#1E1E1E"/>
<path d="M20.6256 20.0449H25.4085C25.4367 20.446 25.4674 20.8314 25.1886 21.1517C24.9763 21.3965 24.7077 21.4955 24.388 21.4955C23.5005 21.4903 22.6104 21.4955 21.7203 21.4955C20.9913 21.4955 20.623 21.1127 20.623 20.3626C20.623 20.2637 20.623 20.1647 20.623 20.0475L20.6256 20.0449Z" fill="#1E1E1E"/>
<path d="M3.40179 9.18762C4.14098 9.48711 4.84436 9.84129 5.5861 10.0496C6.31506 10.2528 7.08749 10.3074 7.8983 10.4377C6.81637 11.4689 5.68841 12.2684 4.23306 12.4559C4.14098 12.4664 3.98496 12.4065 3.94915 12.3309C3.47085 11.3439 3.26879 10.2996 3.39668 9.20064C3.39668 9.18241 3.41202 9.16418 3.40179 9.19022V9.18762Z" fill="#1E1E1E"/>
<path d="M10.3742 9.15125C11.4152 8.08091 12.5534 7.28141 14.019 7.09911C14.0983 7.08869 14.2338 7.13557 14.2645 7.19547C14.7607 8.20852 14.9551 9.27886 14.8272 10.469C13.446 9.59398 11.9651 9.19813 10.3742 9.15125Z" fill="#1E1E1E"/>
<path d="M8.50194 8.48978C7.46862 7.4559 6.69618 6.31784 6.49156 4.86728C6.47622 4.7579 6.53504 4.56519 6.61689 4.52352C7.55558 4.04434 8.55054 3.84381 9.60177 3.94798C9.65037 3.95319 9.69641 3.97142 9.7757 3.99226C8.92909 5.3725 8.53008 6.87255 8.50194 8.49239V8.48978Z" fill="#1E1E1E"/>
<path d="M8.44308 15.5786C9.02113 14.6228 9.40223 13.6488 9.5557 12.5915C9.61708 12.1722 9.62475 11.7425 9.66312 11.3206C9.67079 11.2477 9.7066 11.1748 9.72706 11.1045C9.79101 11.1357 9.87285 11.1514 9.91889 11.2008C10.809 12.1748 11.5021 13.2582 11.7298 14.5994C11.7758 14.8676 11.7272 15.0187 11.4561 15.1333C10.5941 15.4978 9.7066 15.6775 8.77303 15.6255C8.67583 15.6202 8.57864 15.5994 8.44052 15.5786H8.44308Z" fill="#1E1E1E"/>
<path d="M12.6711 14.3675C12.3155 12.8362 11.6224 11.5419 10.5635 10.4559C10.52 10.409 10.4995 10.3387 10.4688 10.2788C10.5251 10.2528 10.5839 10.2033 10.6402 10.2059C11.9779 10.2502 13.2491 10.5184 14.3643 11.3388C14.5638 11.4872 14.5945 11.62 14.505 11.844C14.1136 12.8336 13.533 13.6748 12.6736 14.3675H12.6711Z" fill="#1E1E1E"/>
<path d="M5.48378 5.25016C5.79582 5.98456 6.04904 6.73979 6.42759 7.4195C6.79846 8.08618 7.30233 8.67735 7.79342 9.36747C7.40976 9.33882 7.06958 9.32841 6.73196 9.28674C5.6884 9.15913 4.70879 8.84923 3.84939 8.20077C3.68058 8.07316 3.63198 7.96118 3.71383 7.74763C4.09749 6.74239 4.68832 5.89341 5.48378 5.24756V5.25016Z" fill="#1E1E1E"/>
<path d="M9.50198 8.37786C9.55314 7.89086 9.58127 7.39866 9.658 6.91427C9.8038 6.00279 10.1158 5.1538 10.6683 4.40378C10.7885 4.23972 10.8934 4.19544 11.0903 4.27357C12.0827 4.6616 12.914 5.26579 13.6225 6.14862C12.0648 6.53145 10.7348 7.28928 9.62731 8.44817C9.58639 8.42473 9.54291 8.39869 9.50198 8.37525V8.37786Z" fill="#1E1E1E"/>
<path d="M8.64513 11.1409C8.70651 11.9638 8.62722 12.7425 8.36378 13.4769C8.15404 14.0602 7.82921 14.6019 7.55042 15.1592C7.46601 15.3259 7.34835 15.3623 7.15652 15.2868C6.22295 14.9274 5.42749 14.3727 4.77271 13.6071C4.72156 13.5472 4.68063 13.4795 4.61925 13.3961C6.17947 13.0315 7.49159 12.2529 8.64513 11.1409Z" fill="#1E1E1E"/>
<path d="M9.1158 10.2606C8.85491 10.2606 8.63751 10.0419 8.63495 9.77622C8.63495 9.51059 8.84724 9.28923 9.10813 9.28662C9.36902 9.28662 9.58643 9.50538 9.58899 9.76841C9.58899 10.0314 9.37414 10.2554 9.11325 10.258L9.1158 10.2606Z" fill="#1E1E1E"/>
</svg>
