<svg width="26" height="22" viewBox="0 0 132 110" fill="none" xmlns="http://www.w3.org/2000/svg">
<path d="M71.3862 67.4992V39.2874H126.815C128.174 42.7178 130.208 46.7062 131.111 50.2373C132.552 55.8174 131.777 61.0317 127.153 64.8463C126.149 65.6788 123.039 67.49 121.853 67.49H71.3862V67.4992Z" fill="black"/>
<path d="M60.7964 39.2966V67.5085H10.3293C7.72062 67.5085 3.40634 63.7304 2.08377 61.5075C-2.24876 54.2259 3.16919 46.2856 5.69574 39.2966H60.7964Z" fill="black"/>
<path d="M81.9756 78.1199V99.3611H101.996C103.127 99.3611 105.161 100.898 105.809 101.849C108.044 105.133 105.882 109.634 102.015 110L29.5475 109.963C26.0723 109.021 24.2481 104.987 26.3824 101.849C27.0209 100.907 29.064 99.3611 30.1951 99.3611H50.2159V78.1199H81.9847H81.9756Z" fill="black"/>
<path d="M122.346 28.676H71.3862V0.464111H106.293C108.409 0.464111 112.249 3.45544 113.581 5.10205C116.144 8.28549 118.925 17.8815 120.367 22.1902C121.078 24.3216 121.908 26.4622 122.346 28.6668V28.676Z" fill="black"/>
<path d="M60.7966 0.464111V28.676H9.83691C9.85516 27.7154 10.2747 26.8281 10.5848 25.9408C12.2266 21.1382 16.2035 8.55077 18.9398 5.1112C20.2076 3.51948 24.2027 0.473259 26.2276 0.473259H60.8057L60.7966 0.464111Z" fill="black"/>
</svg>
