<svg width="26" height="26" viewBox="0 0 26 26" fill="none" xmlns="http://www.w3.org/2000/svg">
<path d="M15.1725 9.88183C13.5859 8.90289 12.0322 8.98539 10.4484 10.1623C10.1624 9.29337 9.85164 8.47667 9.62341 7.64073C9.22193 6.16132 9.15869 4.66267 9.50241 3.15577C9.89839 1.42889 10.9653 0.419705 12.7032 0.117225C14.9581 -0.27325 16.9682 0.372958 18.8298 1.59938C19.6657 2.15209 20.3917 2.82855 20.9829 3.63974C21.6044 4.49219 21.2579 5.44087 20.235 5.69661C19.784 5.80935 19.3303 5.90834 18.8793 6.01833C17.8399 6.27132 16.9902 6.81578 16.4155 7.72322C15.9755 8.41618 15.5933 9.14488 15.1725 9.88183Z" fill="#1E1E1E"/>
<path d="M16.1158 15.1726C17.092 13.5859 17.0177 12.0323 15.8298 10.4539C16.6932 10.1679 17.5072 9.85442 18.3459 9.62619C19.8363 9.21921 21.3459 9.15047 22.8638 9.51069C24.5962 9.92317 25.5862 10.9681 25.8859 12.728C26.2681 14.9718 25.6247 16.971 24.4037 18.8243C23.8455 19.6685 23.1608 20.4027 22.3359 20.9967C21.4972 21.5989 20.5485 21.2469 20.3038 20.2432C20.1773 19.7208 20.0618 19.1928 19.9188 18.6731C19.6576 17.7299 19.1296 16.9627 18.3019 16.4375C17.6007 15.992 16.861 15.6015 16.1158 15.1726Z" fill="#1E1E1E"/>
<path d="M9.9039 10.7864C8.90572 12.4061 8.97721 13.9597 10.1431 15.5244C9.50518 15.7581 8.90572 16.0056 8.28701 16.1981C6.56287 16.7343 4.81674 16.9048 3.03761 16.462C1.35197 16.0413 0.397782 14.9634 0.109051 13.2695C-0.273174 11.0147 0.378536 9.00728 1.60771 7.14841C2.16042 6.31246 2.83962 5.58926 3.65357 5.0008C4.49227 4.39584 5.44095 4.74781 5.68844 5.75425C5.79843 6.20522 5.90292 6.65894 6.01291 7.10991C6.27689 8.19609 6.86536 9.06228 7.81955 9.65074C8.38326 9.99997 8.97997 10.2969 9.56293 10.6159C9.67292 10.6764 9.78291 10.7287 9.89841 10.7864H9.9039Z" fill="#1E1E1E"/>
<path d="M10.7866 16.0936C12.4145 17.1028 13.9764 17.0148 15.5053 15.8682C16.5145 18.1395 17.0562 20.4494 16.4732 22.9105C16.0718 24.6043 14.9993 25.5915 13.2834 25.8858C11.1358 26.2542 9.20271 25.674 7.39608 24.5493C6.45565 23.9636 5.6417 23.2267 4.98999 22.322C4.39878 21.5053 4.759 20.5456 5.74344 20.3091C6.2659 20.1826 6.79387 20.0671 7.31084 19.9241C8.27603 19.6574 9.05147 19.1047 9.58769 18.2605C9.95341 17.683 10.2614 17.0671 10.5941 16.4676C10.6601 16.3494 10.7151 16.2256 10.7811 16.0964L10.7866 16.0936Z" fill="#1E1E1E"/>
<path d="M12.9837 10.2887C14.4603 10.2749 15.6868 11.4849 15.7088 12.978C15.728 14.4629 14.4878 15.7141 12.9974 15.7113C11.5153 15.7113 10.2944 14.4904 10.2889 13.0055C10.2834 11.5261 11.4988 10.3024 12.9864 10.2887H12.9837Z" fill="#1E1E1E"/>
</svg>
